<svg width="162" height="30" viewBox="0 0 162 30" fill="none" xmlns="http://www.w3.org/2000/svg">
<path fill-rule="evenodd" clip-rule="evenodd" d="M15 0C6.71573 0 0 6.71573 0 15C0 23.2843 6.71573 30 15 30C23.2843 30 30 23.2843 30 15C30 6.71573 23.2843 0 15 0ZM15.03 5.76C9.91032 5.76 5.76 9.91032 5.76 15.03C5.76 20.1497 9.91032 24.3 15.03 24.3C20.1497 24.3 24.3 20.1497 24.3 15.03C24.3 9.91032 20.1497 5.76 15.03 5.76Z" fill="#FFD111"/>
<path d="M30.0976 3.58834C29.6912 2.06796 30.5911 0.505203 32.1075 0.0978187C33.6239 -0.309565 35.1825 0.592695 35.5888 2.11307L42.0824 26.4115C42.4888 27.9319 41.5889 29.4947 40.0725 29.902C38.5561 30.3094 36.9975 29.4072 36.5912 27.8868L30.0976 3.58834Z" fill="#FF4499"/>
<path d="M44.88 27.15C44.88 25.576 46.156 24.3 47.73 24.3C49.304 24.3 50.58 25.576 50.58 27.15C50.58 28.724 49.304 30 47.73 30C46.156 30 44.88 28.724 44.88 27.15Z" fill="#7755FF"/>
<path d="M66.62 8.1C68.1 8.1 69.3933 8.38667 70.5 8.96C71.62 9.52 72.48 10.3333 73.08 11.4C73.6933 12.4533 74 13.6867 74 15.1C74 16.5133 73.6933 17.74 73.08 18.78C72.48 19.82 71.62 20.62 70.5 21.18C69.3933 21.7267 68.1 22 66.62 22H62.08V8.1H66.62ZM66.62 20.14C68.2466 20.14 69.4933 19.7 70.36 18.82C71.2266 17.94 71.66 16.7 71.66 15.1C71.66 13.4867 71.2266 12.2267 70.36 11.32C69.4933 10.4133 68.2466 9.96 66.62 9.96H64.36V20.14H66.62ZM86.3596 16.22C86.3596 16.6333 86.333 17.0067 86.2796 17.34H77.8596C77.9263 18.22 78.253 18.9267 78.8396 19.46C79.4263 19.9933 80.1463 20.26 80.9996 20.26C82.2263 20.26 83.093 19.7467 83.5996 18.72H86.0596C85.7263 19.7333 85.1196 20.5667 84.2396 21.22C83.373 21.86 82.293 22.18 80.9996 22.18C79.9463 22.18 78.9996 21.9467 78.1596 21.48C77.333 21 76.6796 20.3333 76.1996 19.48C75.733 18.6133 75.4996 17.6133 75.4996 16.48C75.4996 15.3467 75.7263 14.3533 76.1796 13.5C76.6463 12.6333 77.293 11.9667 78.1196 11.5C78.9596 11.0333 79.9196 10.8 80.9996 10.8C82.0396 10.8 82.9663 11.0267 83.7796 11.48C84.593 11.9333 85.2263 12.5733 85.6796 13.4C86.133 14.2133 86.3596 15.1533 86.3596 16.22ZM83.9796 15.5C83.9663 14.66 83.6663 13.9867 83.0796 13.48C82.493 12.9733 81.7663 12.72 80.8996 12.72C80.113 12.72 79.4396 12.9733 78.8796 13.48C78.3196 13.9733 77.9863 14.6467 77.8796 15.5H83.9796ZM92.8634 19.96L95.9834 10.98H98.4034L94.2034 22H91.4834L87.3034 10.98H89.7434L92.8634 19.96ZM116.742 22H114.462L107.602 11.62V22H105.322V8.08H107.602L114.462 18.44V8.08H116.742V22ZM124.516 22.18C123.476 22.18 122.536 21.9467 121.696 21.48C120.856 21 120.196 20.3333 119.716 19.48C119.236 18.6133 118.996 17.6133 118.996 16.48C118.996 15.36 119.243 14.3667 119.736 13.5C120.23 12.6333 120.903 11.9667 121.756 11.5C122.61 11.0333 123.563 10.8 124.616 10.8C125.67 10.8 126.623 11.0333 127.476 11.5C128.33 11.9667 129.003 12.6333 129.496 13.5C129.99 14.3667 130.236 15.36 130.236 16.48C130.236 17.6 129.983 18.5933 129.476 19.46C128.97 20.3267 128.276 21 127.396 21.48C126.53 21.9467 125.57 22.18 124.516 22.18ZM124.516 20.2C125.103 20.2 125.65 20.06 126.156 19.78C126.676 19.5 127.096 19.08 127.416 18.52C127.736 17.96 127.896 17.28 127.896 16.48C127.896 15.68 127.743 15.0067 127.436 14.46C127.13 13.9 126.723 13.48 126.216 13.2C125.71 12.92 125.163 12.78 124.576 12.78C123.99 12.78 123.443 12.92 122.936 13.2C122.443 13.48 122.05 13.9 121.756 14.46C121.463 15.0067 121.316 15.68 121.316 16.48C121.316 17.6667 121.616 18.5867 122.216 19.24C122.83 19.88 123.596 20.2 124.516 20.2ZM135.15 12.84V18.94C135.15 19.3533 135.243 19.6533 135.43 19.84C135.63 20.0133 135.963 20.1 136.43 20.1H137.83V22H136.03C135.003 22 134.217 21.76 133.67 21.28C133.123 20.8 132.85 20.02 132.85 18.94V12.84H131.55V10.98H132.85V8.24H135.15V10.98H137.83V12.84H135.15ZM150.032 16.22C150.032 16.6333 150.005 17.0067 149.952 17.34H141.532C141.598 18.22 141.925 18.9267 142.512 19.46C143.098 19.9933 143.818 20.26 144.672 20.26C145.898 20.26 146.765 19.7467 147.272 18.72H149.732C149.398 19.7333 148.792 20.5667 147.912 21.22C147.045 21.86 145.965 22.18 144.672 22.18C143.618 22.18 142.672 21.9467 141.832 21.48C141.005 21 140.352 20.3333 139.872 19.48C139.405 18.6133 139.172 17.6133 139.172 16.48C139.172 15.3467 139.398 14.3533 139.852 13.5C140.318 12.6333 140.965 11.9667 141.792 11.5C142.632 11.0333 143.592 10.8 144.672 10.8C145.712 10.8 146.638 11.0267 147.452 11.48C148.265 11.9333 148.898 12.5733 149.352 13.4C149.805 14.2133 150.032 15.1533 150.032 16.22ZM147.652 15.5C147.638 14.66 147.338 13.9867 146.752 13.48C146.165 12.9733 145.438 12.72 144.572 12.72C143.785 12.72 143.112 12.9733 142.552 13.48C141.992 13.9733 141.658 14.6467 141.552 15.5H147.652ZM156.275 22.18C155.409 22.18 154.629 22.0267 153.935 21.72C153.255 21.4 152.715 20.9733 152.315 20.44C151.915 19.8933 151.702 19.2867 151.675 18.62H154.035C154.075 19.0867 154.295 19.48 154.695 19.8C155.109 20.1067 155.622 20.26 156.235 20.26C156.875 20.26 157.369 20.14 157.715 19.9C158.075 19.6467 158.255 19.3267 158.255 18.94C158.255 18.5267 158.055 18.22 157.655 18.02C157.269 17.82 156.649 17.6 155.795 17.36C154.969 17.1333 154.295 16.9133 153.775 16.7C153.255 16.4867 152.802 16.16 152.415 15.72C152.042 15.28 151.855 14.7 151.855 13.98C151.855 13.3933 152.029 12.86 152.375 12.38C152.722 11.8867 153.215 11.5 153.855 11.22C154.509 10.94 155.255 10.8 156.095 10.8C157.349 10.8 158.355 11.12 159.115 11.76C159.889 12.3867 160.302 13.2467 160.355 14.34H158.075C158.035 13.8467 157.835 13.4533 157.475 13.16C157.115 12.8667 156.629 12.72 156.015 12.72C155.415 12.72 154.955 12.8333 154.635 13.06C154.315 13.2867 154.155 13.5867 154.155 13.96C154.155 14.2533 154.262 14.5 154.475 14.7C154.689 14.9 154.949 15.06 155.255 15.18C155.562 15.2867 156.015 15.4267 156.615 15.6C157.415 15.8133 158.069 16.0333 158.575 16.26C159.095 16.4733 159.542 16.7933 159.915 17.22C160.289 17.6467 160.482 18.2133 160.495 18.92C160.495 19.5467 160.322 20.1067 159.975 20.6C159.629 21.0933 159.135 21.48 158.495 21.76C157.869 22.04 157.129 22.18 156.275 22.18Z" fill="white"/>
</svg>
