<svg viewBox="0 0 843 500" fill="none" xmlns="http://www.w3.org/2000/svg">
<path fill-rule="evenodd" clip-rule="evenodd" d="M250 0C111.929 0 0 111.929 0 250C0 388.071 111.929 500 250 500C388.071 500 500 388.071 500 250C500 111.929 388.071 0 250 0ZM250.5 96C165.172 96 96 165.172 96 250.5C96 335.828 165.172 405 250.5 405C335.828 405 405 335.828 405 250.5C405 165.172 335.828 96 250.5 96Z" fill="#FFD111"/>
<path d="M501.626 59.8057C494.854 34.4661 509.852 8.42005 535.125 1.63031C560.398 -5.15942 586.375 9.87824 593.147 35.2179L701.374 440.192C708.146 465.532 693.148 491.578 667.875 498.367C642.602 505.157 616.625 490.119 609.853 464.78L501.626 59.8057Z" fill="#FF4499"/>
<path d="M748 452.5C748 426.266 769.266 405 795.5 405C821.734 405 843 426.266 843 452.5C843 478.734 821.734 500 795.5 500C769.266 500 748 478.734 748 452.5Z" fill="#7755FF"/>
</svg>
