<svg width="50" height="50" viewBox="0 0 50 50" fill="none" xmlns="http://www.w3.org/2000/svg">
<path d="M39.5094 46.874C43.6844 46.874 46.875 43.2646 46.875 39.0615V16.124C46.875 15.8479 46.6511 15.624 46.375 15.624H3.625C3.34886 15.624 3.125 15.8479 3.125 16.124V39.0615C3.125 43.2646 6.31563 46.874 10.4906 46.874H39.5094ZM17.1875 21.874H32.8125C33.2269 21.874 33.6243 22.0386 33.9174 22.3316C34.2104 22.6247 34.375 23.0221 34.375 23.4365C34.375 23.8509 34.2104 24.2483 33.9174 24.5413C33.6243 24.8344 33.2269 24.999 32.8125 24.999H17.1875C16.7731 24.999 16.3757 24.8344 16.0826 24.5413C15.7896 24.2483 15.625 23.8509 15.625 23.4365C15.625 23.0221 15.7896 22.6247 16.0826 22.3316C16.3757 22.0386 16.7731 21.874 17.1875 21.874ZM2.5 3.12399C1.83696 3.12399 1.20107 3.38738 0.732233 3.85623C0.263392 4.32507 0 4.96095 0 5.62399V9.37399C0 10.037 0.263392 10.6729 0.732233 11.1418C1.20107 11.6106 1.83696 11.874 2.5 11.874H47.5C48.163 11.874 48.7989 11.6106 49.2678 11.1418C49.7366 10.6729 50 10.037 50 9.37399V5.62399C50 4.96095 49.7366 4.32507 49.2678 3.85623C48.7989 3.38738 48.163 3.12399 47.5 3.12399H2.5Z" fill="black"/>
</svg>
