<svg width="52" height="50" viewBox="0 0 52 50" fill="none" xmlns="http://www.w3.org/2000/svg">
<path d="M3.2043 6.10243C2.54378 6.16021 1.93327 6.47803 1.50708 6.98594C1.08088 7.49386 0.873912 8.15028 0.9317 8.8108L1.25853 12.5465C1.31632 13.2071 1.63413 13.8176 2.14205 14.2438C2.64997 14.67 3.30639 14.8769 3.96691 14.8191L48.7957 10.8971C49.4562 10.8393 50.0667 10.5215 50.4929 10.0136C50.9191 9.50569 51.1261 8.84926 51.0683 8.18875L50.7414 4.45302C50.6836 3.7925 50.3658 3.18199 49.8579 2.75579C49.35 2.3296 48.6936 2.12263 48.0331 2.18042L3.2043 6.10243Z" fill="black"/>
<path d="M40.5093 46.8748C44.6843 46.8748 47.875 43.2654 47.875 39.0623V16.1248C47.875 15.8486 47.6511 15.6248 47.375 15.6248H4.62497C4.34883 15.6248 4.12497 15.8486 4.12497 16.1248V39.0623C4.12497 43.2654 7.3156 46.8748 11.4906 46.8748H40.5093ZM18.1875 21.8748H33.8125C34.2269 21.8748 34.6243 22.0394 34.9173 22.3324C35.2104 22.6254 35.375 23.0229 35.375 23.4373C35.375 23.8517 35.2104 24.2491 34.9173 24.5421C34.6243 24.8352 34.2269 24.9998 33.8125 24.9998H18.1875C17.7731 24.9998 17.3756 24.8352 17.0826 24.5421C16.7896 24.2491 16.625 23.8517 16.625 23.4373C16.625 23.0229 16.7896 22.6254 17.0826 22.3324C17.3756 22.0394 17.7731 21.8748 18.1875 21.8748Z" fill="black"/>
</svg>
