<svg width="52" height="50" viewBox="0 0 52 50" fill="none" xmlns="http://www.w3.org/2000/svg">
<path d="M3.20433 6.10165C2.54381 6.15944 1.9333 6.47725 1.50711 6.98517C1.08091 7.49309 0.873943 8.14951 0.931731 8.81002L1.25856 12.5458C1.31635 13.2063 1.63416 13.8168 2.14208 14.243C2.65 14.6692 3.30642 14.8761 3.96694 14.8184L48.7957 10.8963C49.4562 10.8386 50.0667 10.5207 50.4929 10.0128C50.9191 9.50491 51.1261 8.84849 51.0683 8.18797L50.7415 4.45224C50.6837 3.79172 50.3659 3.18121 49.8579 2.75502C49.35 2.32882 48.6936 2.12185 48.0331 2.17964L3.20433 6.10165Z" fill="black"/>
<path d="M40.5094 46.874C44.6844 46.874 47.875 43.2646 47.875 39.0615V16.124C47.875 15.8479 47.6511 15.624 47.375 15.624H4.62501C4.34886 15.624 4.125 15.8479 4.125 16.124V39.0615C4.125 43.2646 7.31563 46.874 11.4906 46.874H40.5094ZM18.1875 21.874H33.8125C34.2269 21.874 34.6243 22.0386 34.9174 22.3316C35.2104 22.6247 35.375 23.0221 35.375 23.4365C35.375 23.8509 35.2104 24.2483 34.9174 24.5414C34.6243 24.8344 34.2269 24.999 33.8125 24.999H18.1875C17.7731 24.999 17.3757 24.8344 17.0826 24.5414C16.7896 24.2483 16.625 23.8509 16.625 23.4365C16.625 23.0221 16.7896 22.6247 17.0826 22.3316C17.3757 22.0386 17.7731 21.874 18.1875 21.874Z" fill="black"/>
</svg>
