<svg width="50" height="50" viewBox="0 0 50 50" fill="none" xmlns="http://www.w3.org/2000/svg">
<path d="M39.5094 46.875C43.6844 46.875 46.875 43.2656 46.875 39.0625V16.125C46.875 15.8489 46.6511 15.625 46.375 15.625H3.625C3.34886 15.625 3.125 15.8489 3.125 16.125V39.0625C3.125 43.2656 6.31563 46.875 10.4906 46.875H39.5094ZM17.1875 21.875H32.8125C33.2269 21.875 33.6243 22.0396 33.9174 22.3326C34.2104 22.6257 34.375 23.0231 34.375 23.4375C34.375 23.8519 34.2104 24.2493 33.9174 24.5424C33.6243 24.8354 33.2269 25 32.8125 25H17.1875C16.7731 25 16.3757 24.8354 16.0826 24.5424C15.7896 24.2493 15.625 23.8519 15.625 23.4375C15.625 23.0231 15.7896 22.6257 16.0826 22.3326C16.3757 22.0396 16.7731 21.875 17.1875 21.875ZM2.5 3.125C1.83696 3.125 1.20107 3.38839 0.732233 3.85723C0.263392 4.32607 0 4.96196 0 5.625V9.375C0 10.038 0.263392 10.6739 0.732233 11.1428C1.20107 11.6116 1.83696 11.875 2.5 11.875H47.5C48.163 11.875 48.7989 11.6116 49.2678 11.1428C49.7366 10.6739 50 10.038 50 9.375V5.625C50 4.96196 49.7366 4.32607 49.2678 3.85723C48.7989 3.38839 48.163 3.125 47.5 3.125H2.5Z" fill="black"/>
</svg>
