<svg width="50" height="50" viewBox="0 0 50 50" fill="none" xmlns="http://www.w3.org/2000/svg">
<path d="M5 25C5 19.175 7.55 13.95 11.55 10.3L15.375 14.125C16.15 14.9 17.5 14.35 17.5 13.225V2.49997C17.5 1.79997 16.95 1.24997 16.25 1.24997H5.525C4.4 1.24997 3.85 2.59997 4.65 3.37497L8 6.74997C3.1 11.3 0 17.775 0 25C0 36.875 8.3 46.825 19.4 49.375C20.975 49.725 22.5 48.55 22.5 46.925C22.5 45.75 21.675 44.75 20.525 44.475C11.65 42.45 5 34.5 5 25ZM50 25C50 13.125 41.7 3.17497 30.6 0.624966C29.025 0.274966 27.5 1.44997 27.5 3.07497C27.5 4.24997 28.325 5.24997 29.475 5.52497C38.35 7.54997 45 15.5 45 25C45 30.825 42.45 36.05 38.45 39.7L34.625 35.875C33.85 35.1 32.5 35.65 32.5 36.775V47.5C32.5 48.2 33.05 48.75 33.75 48.75H44.475C45.6 48.75 46.15 47.4 45.35 46.625L42 43.25C46.9 38.7 50 32.225 50 25Z" fill="black"/>
</svg>
