<svg width="51" height="50" viewBox="0 0 51 50" fill="none" xmlns="http://www.w3.org/2000/svg">
<path d="M15.2873 13.6067C15.2873 13.1331 15.4755 12.6789 15.8103 12.344C16.1452 12.0092 16.5994 11.821 17.073 11.821H49.2144C49.6879 11.821 50.1421 12.0092 50.477 12.344C50.8119 12.6789 51 13.1331 51 13.6067C51 14.0803 50.8119 14.5344 50.477 14.8693C50.1421 15.2042 49.6879 15.3923 49.2144 15.3923H17.073C16.5994 15.3923 16.1452 15.2042 15.8103 14.8693C15.4755 14.5344 15.2873 14.0803 15.2873 13.6067Z" fill="black"/>
<path d="M11.1947 7.77118C11.3609 7.93705 11.4929 8.1341 11.5829 8.35103C11.6729 8.56797 11.7192 8.80054 11.7192 9.03541C11.7192 9.27028 11.6729 9.50285 11.5829 9.71978C11.4929 9.93672 11.3609 10.1338 11.1947 10.2996L5.83775 15.6565C5.67188 15.8228 5.47484 15.9548 5.2579 16.0448C5.04096 16.1348 4.8084 16.1811 4.57352 16.1811C4.33865 16.1811 4.10609 16.1348 3.88915 16.0448C3.67221 15.9548 3.47516 15.8228 3.30929 15.6565L1.52366 13.8709C1.35764 13.7049 1.22594 13.5078 1.13609 13.2909C1.04625 13.074 1 12.8415 1 12.6067C1 12.3719 1.04625 12.1394 1.13609 11.9225C1.22594 11.7056 1.35764 11.5085 1.52366 11.3424C1.68968 11.1764 1.88678 11.0447 2.10369 10.9549C2.32061 10.865 2.5531 10.8188 2.78789 10.8188C3.02268 10.8188 3.25517 10.865 3.47208 10.9549C3.689 11.0447 3.8861 11.1764 4.05212 11.3424L4.57352 11.8674L8.6662 7.77118C8.83207 7.60489 9.02911 7.47296 9.24605 7.38294C9.46299 7.29292 9.69555 7.24658 9.93042 7.24658C10.1653 7.24658 10.3979 7.29292 10.6148 7.38294C10.8317 7.47296 11.0288 7.60489 11.1947 7.77118Z" fill="black"/>
<path d="M15.8048 36.916C15.4699 37.2509 15.2818 37.705 15.2818 38.1786C15.2818 38.6522 15.4699 39.1064 15.8048 39.4412C16.1396 39.7761 16.5938 39.9642 17.0674 39.9642H39.2088C39.6824 39.9642 40.1366 39.7761 40.4714 39.4412C40.8063 39.1064 40.9944 38.6522 40.9944 38.1786C40.9944 37.705 40.8063 37.2509 40.4714 36.916C40.1366 36.5811 39.6824 36.393 39.2088 36.393H17.0674C16.5938 36.393 16.1396 36.5811 15.8048 36.916Z" fill="black"/>
<path d="M15.8048 24.6309C15.4699 24.9658 15.2818 25.42 15.2818 25.8935C15.2818 26.3671 15.4699 26.8213 15.8048 27.1562C16.1396 27.491 16.5938 27.6792 17.0674 27.6792H49.2088C49.6824 27.6792 50.1366 27.491 50.4714 27.1562C50.8063 26.8213 50.9944 26.3671 50.9944 25.8935C50.9944 25.42 50.8063 24.9658 50.4714 24.6309C50.1366 24.296 49.6824 24.1079 49.2088 24.1079H17.0674C16.5938 24.1079 16.1396 24.296 15.8048 24.6309Z" fill="black"/>
<path d="M11.5773 21.6379C11.4873 21.421 11.3554 21.2239 11.1891 21.058C11.0232 20.8918 10.8262 20.7598 10.6092 20.6698C10.3923 20.5798 10.1597 20.5334 9.92487 20.5334C9.69 20.5334 9.45743 20.5798 9.24049 20.6698C9.02356 20.7598 8.82651 20.8918 8.66064 21.058L4.56797 25.1543L4.04656 24.6293C3.88054 24.4633 3.68345 24.3316 3.46653 24.2417C3.24961 24.1519 3.01712 24.1057 2.78234 24.1057C2.54755 24.1057 2.31506 24.1519 2.09814 24.2417C1.88122 24.3316 1.68413 24.4633 1.51811 24.6293C1.35209 24.7953 1.22039 24.9924 1.13054 25.2093C1.04069 25.4263 0.994446 25.6588 0.994446 25.8935C0.994446 26.1283 1.04069 26.3608 1.13054 26.5777C1.22039 26.7947 1.35209 26.9917 1.51811 27.1578L3.30374 28.9434C3.46961 29.1097 3.66666 29.2416 3.88359 29.3316C4.10053 29.4217 4.3331 29.468 4.56797 29.468C4.80284 29.468 5.03541 29.4217 5.25234 29.3316C5.46928 29.2416 5.66633 29.1097 5.8322 28.9434L11.1891 23.5865C11.3554 23.4206 11.4873 23.2236 11.5773 23.0066C11.6674 22.7897 11.7137 22.5571 11.7137 22.3223C11.7137 22.0874 11.6674 21.8548 11.5773 21.6379Z" fill="black"/>
<path d="M11.5773 34.923C11.4873 34.706 11.3554 34.509 11.1891 34.3431C11.0232 34.1768 10.8262 34.0449 10.6092 33.9549C10.3923 33.8649 10.1597 33.8185 9.92487 33.8185C9.69 33.8185 9.45743 33.8649 9.24049 33.9549C9.02356 34.0449 8.82651 34.1768 8.66064 34.3431L4.56797 38.4394L4.04656 37.9144C3.71127 37.5791 3.25651 37.3907 2.78234 37.3907C2.30816 37.3907 1.8534 37.5791 1.51811 37.9144C1.18281 38.2497 0.994446 38.7044 0.994446 39.1786C0.994446 39.6528 1.18281 40.1075 1.51811 40.4428L3.30374 42.2285C3.46961 42.3948 3.66666 42.5267 3.88359 42.6167C4.10053 42.7067 4.3331 42.7531 4.56797 42.7531C4.80284 42.7531 5.03541 42.7067 5.25234 42.6167C5.46928 42.5267 5.66633 42.3948 5.8322 42.2285L11.1891 36.8716C11.3554 36.7057 11.4873 36.5087 11.5773 36.2917C11.6674 36.0748 11.7137 35.8422 11.7137 35.6073C11.7137 35.3725 11.6674 35.1399 11.5773 34.923Z" fill="black"/>
</svg>
