<svg width="50" height="50" viewBox="0 0 50 50" fill="none" xmlns="http://www.w3.org/2000/svg">
<path d="M28.2438 41.5297L48.9248 17.8906C51.3654 15.1049 49.3819 10.7411 45.6777 10.7411H4.31583C3.48684 10.7404 2.67523 10.9786 1.97817 11.4273C1.28111 11.876 0.728165 12.5161 0.385542 13.271C0.0429178 14.0258 -0.0748567 14.8635 0.0463219 15.6835C0.1675 16.5036 0.522495 17.2714 1.06879 17.8949L21.7498 41.5253C22.1545 41.9885 22.6536 42.3597 23.2137 42.6141C23.7737 42.8684 24.3817 43 24.9968 43C25.6119 43 26.2198 42.8684 26.7799 42.6141C27.3399 42.3597 27.8391 41.9885 28.2438 41.5253V41.5297Z" fill="black"/>
</svg>
