<svg width="50" height="50" viewBox="0 0 50 50" fill="none" xmlns="http://www.w3.org/2000/svg">
<path d="M28.2438 41.5286L48.9248 17.8896C51.3654 15.1039 49.3819 10.7401 45.6777 10.7401H4.31583C3.48684 10.7394 2.67523 10.9776 1.97817 11.4263C1.28111 11.875 0.728165 12.5151 0.385542 13.27C0.0429178 14.0248 -0.0748567 14.8624 0.0463219 15.6825C0.1675 16.5026 0.522495 17.2704 1.06879 17.8939L21.7498 41.5243C22.1545 41.9875 22.6536 42.3587 23.2137 42.6131C23.7737 42.8674 24.3817 42.999 24.9968 42.999C25.6119 42.999 26.2198 42.8674 26.7799 42.6131C27.3399 42.3587 27.8391 41.9875 28.2438 41.5243V41.5286Z" fill="black"/>
</svg>
