<svg width="50" height="50" viewBox="0 0 50 50" fill="none" xmlns="http://www.w3.org/2000/svg">
<path d="M30.9699 2.80097C32.7633 1.00754 35.1957 -9.07049e-08 37.732 0C40.2683 9.07049e-08 42.7007 1.00754 44.4941 2.80097C46.2876 4.5944 47.2951 7.02681 47.2951 9.56311C47.2951 12.0994 46.2876 14.5318 44.4941 16.3252L20.1505 40.6689C19.0744 41.745 17.615 42.3495 16.0932 42.3495C14.5714 42.3495 13.112 41.745 12.0359 40.6689C10.9598 39.5929 10.3553 38.1334 10.3553 36.6117C10.3553 35.0899 10.9598 33.6304 12.0359 32.5544L30.9699 13.6204C31.3286 13.2617 31.815 13.0602 32.3223 13.0602C32.8296 13.0602 33.316 13.2617 33.6747 13.6204C34.0334 13.9791 34.2349 14.4656 34.2349 14.9728C34.2349 15.4801 34.0334 15.9666 33.6747 16.3252L14.7407 35.2592C14.3821 35.6179 14.1806 36.1044 14.1806 36.6117C14.1806 37.1189 14.3821 37.6054 14.7407 37.9641C15.0994 38.3228 15.5859 38.5243 16.0932 38.5243C16.6004 38.5243 17.0869 38.3228 17.4456 37.9641L41.7893 13.6204C42.3221 13.0876 42.7448 12.455 43.0331 11.7589C43.3215 11.0627 43.4699 10.3166 43.4699 9.56311C43.4699 8.8096 43.3215 8.06347 43.0331 7.36732C42.7448 6.67117 42.3221 6.03863 41.7893 5.50582C41.2565 4.97301 40.6239 4.55037 39.9278 4.26201C39.2316 3.97366 38.4855 3.82524 37.732 3.82524C36.9785 3.82524 36.2324 3.97366 35.5362 4.26201C34.8401 4.55036 34.2075 4.97301 33.6747 5.50582L9.33104 29.8495C7.53761 31.6429 6.53007 34.0754 6.53007 36.6117C6.53007 39.1479 7.53761 41.5804 9.33104 43.3738C11.1245 45.1672 13.5569 46.1748 16.0932 46.1748C18.6295 46.1748 21.0619 45.1672 22.8553 43.3738L41.7893 24.4398C42.148 24.0811 42.6345 23.8796 43.1417 23.8796C43.649 23.8796 44.1355 24.0811 44.4941 24.4398C44.8528 24.7985 45.0543 25.285 45.0543 25.7922C45.0543 26.2995 44.8528 26.786 44.4941 27.1447L25.5602 46.0786C23.0494 48.5894 19.644 50 16.0932 50C12.5424 50 9.13698 48.5894 6.62618 46.0786C4.11538 43.5678 2.70483 40.1625 2.70483 36.6117C2.70483 33.0608 4.11538 29.6555 6.62618 27.1447L30.9699 2.80097Z" fill="black"/>
</svg>
