<svg width="50" height="50" viewBox="0 0 50 50" fill="none" xmlns="http://www.w3.org/2000/svg">
<path d="M32.875 23.874L25.9 16.899C25.4 16.399 24.625 16.399 24.125 16.899L17.15 23.874C16.35 24.649 16.9 25.999 18.025 25.999H22.5V43.499C22.5 44.874 23.625 45.999 25 45.999C26.375 45.999 27.5 44.874 27.5 43.499V25.999H31.975C33.1 25.999 33.65 24.649 32.875 23.874ZM2.5 8.99899H47.5C48.875 8.99899 50 7.87399 50 6.49899C50 5.12399 48.875 3.99899 47.5 3.99899H2.5C1.125 3.99899 0 5.12399 0 6.49899C0 7.87399 1.125 8.99899 2.5 8.99899Z" fill="black"/>
</svg>
