<svg width="50" height="50" viewBox="0 0 50 50" fill="none" xmlns="http://www.w3.org/2000/svg">
<path d="M42.6287 7.3714C41.4662 6.20888 39.5814 6.20888 38.4189 7.3714L25 20.7903L11.5811 7.3714C10.4186 6.20888 8.53382 6.20888 7.37131 7.3714C6.20879 8.53391 6.20879 10.4187 7.37131 11.5812L20.7902 25.0001L7.37131 38.419C6.20879 39.5815 6.20879 41.4663 7.37131 42.6288C8.53382 43.7913 10.4186 43.7913 11.5811 42.6288L25 29.2099L38.4189 42.6288C39.5814 43.7913 41.4662 43.7913 42.6287 42.6288C43.7912 41.4663 43.7912 39.5815 42.6287 38.419L29.2099 25.0001L42.6287 11.5812C43.7912 10.4187 43.7912 8.53391 42.6287 7.3714Z" fill="black"/>
</svg>
