<svg width="50" height="50" viewBox="0 0 50 50" fill="none" xmlns="http://www.w3.org/2000/svg">
<path d="M43.1046 6.89542C41.9107 5.70153 39.975 5.70153 38.7811 6.89542L25 20.6765L11.2189 6.89542C10.025 5.70153 8.08932 5.70153 6.89542 6.89542C5.70153 8.08932 5.70153 10.025 6.89542 11.2189L20.6765 25L6.89542 38.7811C5.70153 39.975 5.70153 41.9107 6.89542 43.1046C8.08932 44.2985 10.025 44.2985 11.2189 43.1046L25 29.3235L38.7811 43.1046C39.975 44.2985 41.9107 44.2985 43.1046 43.1046C44.2985 41.9107 44.2985 39.975 43.1046 38.7811L29.3235 25L43.1046 11.2189C44.2985 10.025 44.2985 8.08932 43.1046 6.89542Z" fill="black"/>
</svg>
