<svg width="50" height="50" viewBox="0 0 50 50" fill="none" xmlns="http://www.w3.org/2000/svg">
<path d="M42.4806 34.0788H33.1015C33.0125 35.5474 32.7677 36.8046 32.3672 37.8505C31.9666 38.8963 31.4214 39.753 30.7316 40.4206C30.0418 41.0881 29.2074 41.5777 28.2283 41.8892C27.2492 42.2007 26.1477 42.3565 24.9239 42.3565C24.0116 42.3565 23.1771 42.2563 22.4206 42.0561C21.6862 41.8336 21.0187 41.4998 20.4179 41.0547C19.8616 40.6542 19.3609 40.1535 18.9159 39.5527C18.4931 38.9519 18.1259 38.2621 17.8144 37.4833C17.3694 36.3485 17.0356 35.0245 16.8131 33.5113C16.6128 31.976 16.5127 30.2403 16.5127 28.3044V21.6956C16.5127 20.2715 16.5794 18.9475 16.7129 17.7236C16.8465 16.4775 17.0579 15.3427 17.3471 14.3191C17.7254 13.0062 18.2261 11.8603 18.8491 10.8812C19.4944 9.87984 20.2733 9.11215 21.1856 8.5781C21.7196 8.26658 22.2982 8.03293 22.9212 7.87717C23.5665 7.72141 24.2563 7.64352 24.9907 7.64352C26.3703 7.64352 27.5496 7.83267 28.5287 8.21095C29.53 8.56698 30.3645 9.10102 31.032 9.81308C31.6773 10.5474 32.1669 11.4597 32.5007 12.5501C32.8567 13.6404 33.0792 14.9088 33.1682 16.3551H42.514C42.2915 13.8184 41.7574 11.5376 40.9119 9.51268C40.0663 7.48776 38.9092 5.77437 37.4406 4.3725C35.972 2.97063 34.1918 1.89141 32.1001 1.13485C30.0307 0.378282 27.6609 0 24.9907 0C23.1882 0 21.4971 0.233645 19.9172 0.700935C18.3596 1.14597 16.9243 1.79128 15.6115 2.63685C14.1429 3.63818 12.83 4.86204 11.6729 6.30841C10.5158 7.75478 9.58122 9.40142 8.86916 11.2483C8.24611 12.7615 7.77882 14.4081 7.46729 16.1882C7.15576 17.9461 7 19.8042 7 21.7623V28.3044C7 30.3961 7.16689 32.3765 7.50067 34.2457C7.8567 36.1148 8.35737 37.8282 9.00267 39.3858C9.67023 40.9435 10.4824 42.3676 11.4393 43.6582C12.4183 44.9488 13.5309 46.0503 14.777 46.9626C16.1344 47.9417 17.6587 48.6983 19.3498 49.2323C21.0632 49.7441 22.9212 50 24.9239 50C27.4606 50 29.7748 49.6328 31.8665 48.8985C33.9582 48.142 35.7606 47.0739 37.2737 45.6943C38.7868 44.3146 39.9884 42.6457 40.8785 40.6876C41.7908 38.7294 42.3249 36.5265 42.4806 34.0788Z" fill="white"/>
</svg>
