<svg width="50" height="50" viewBox="0 0 50 50" fill="none" xmlns="http://www.w3.org/2000/svg">
<path d="M42.4806 34.0797H33.1015C33.0125 35.5484 32.7677 36.8056 32.3672 37.8514C31.9666 38.8973 31.4214 39.754 30.7316 40.4215C30.0418 41.0891 29.2074 41.5786 28.2283 41.8902C27.2492 42.2017 26.1477 42.3575 24.9239 42.3575C24.0116 42.3575 23.1771 42.2573 22.4206 42.057C21.6862 41.8345 21.0187 41.5008 20.4179 41.0557C19.8616 40.6552 19.3609 40.1545 18.9159 39.5537C18.4931 38.9529 18.1259 38.2631 17.8144 37.4843C17.3694 36.3494 17.0356 35.0255 16.8131 33.5123C16.6128 31.9769 16.5127 30.2413 16.5127 28.3054V21.6966C16.5127 20.2724 16.5794 18.9485 16.7129 17.7246C16.8465 16.4785 17.0579 15.3437 17.3471 14.3201C17.7254 13.0072 18.2261 11.8612 18.8491 10.8822C19.4944 9.88082 20.2733 9.11313 21.1856 8.57908C21.7196 8.26755 22.2982 8.03391 22.9212 7.87815C23.5665 7.72238 24.2563 7.6445 24.9907 7.6445C26.3703 7.6445 27.5496 7.83364 28.5287 8.21192C29.53 8.56795 30.3645 9.102 31.032 9.81406C31.6773 10.5484 32.1669 11.4607 32.5007 12.551C32.8567 13.6414 33.0792 14.9097 33.1682 16.3561H42.514C42.2915 13.8194 41.7574 11.5386 40.9119 9.51366C40.0663 7.48874 38.9092 5.77534 37.4406 4.37347C35.972 2.9716 34.1918 1.89239 32.1001 1.13582C30.0307 0.379259 27.6609 0.000976562 24.9907 0.000976562C23.1882 0.000976562 21.4971 0.234621 19.9172 0.701911C18.3596 1.14695 16.9243 1.79225 15.6115 2.63783C14.1429 3.63916 12.83 4.86301 11.6729 6.30939C10.5158 7.75576 9.58122 9.4024 8.86916 11.2493C8.24611 12.7624 7.77882 14.4091 7.46729 16.1892C7.15576 17.9471 7 19.8052 7 21.7633V28.3054C7 30.3971 7.16689 32.3775 7.50067 34.2466C7.8567 36.1158 8.35737 37.8292 9.00267 39.3868C9.67023 40.9445 10.4824 42.3686 11.4393 43.6592C12.4183 44.9498 13.5309 46.0513 14.777 46.9636C16.1344 47.9427 17.6587 48.6992 19.3498 49.2333C21.0632 49.7451 22.9212 50.001 24.9239 50.001C27.4606 50.001 29.7748 49.6338 31.8665 48.8995C33.9582 48.1429 35.7606 47.0749 37.2737 45.6952C38.7868 44.3156 39.9884 42.6467 40.8785 40.6886C41.7908 38.7304 42.3249 36.5275 42.4806 34.0797Z" fill="black"/>
</svg>
