<svg xmlns="http://www.w3.org/2000/svg" viewBox="0 0 50 50"><defs><style>.a{fill-rule:evenodd;}</style></defs><path class="a" d="M47.24,17.5v-2a4.76,4.76,0,0,0-4.76-4.77H28.18c-1.66,0-3.23-1.12-4.53-2.59A10.06,10.06,0,0,0,16.3,4.34H7.52A4.78,4.78,0,0,0,2.75,9.11V17.5A4.77,4.77,0,0,0,0,22.41l2,16.28a7.93,7.93,0,0,0,7.88,7H40a7.93,7.93,0,0,0,7.89-7l2-16.28A4.75,4.75,0,0,0,47.24,17.5ZM40.37,39H24.11s-1.63,0-1.63-1.34,1.63-5.33,9.76-5.33,9.76,4,9.76,5.33S40.37,39,40.37,39Zm-13-12a3.7,3.7,0,0,1,1.43-2.83,5.67,5.67,0,0,1,6.9,0,3.52,3.52,0,0,1,0,5.66,5.67,5.67,0,0,1-6.9,0A3.7,3.7,0,0,1,27.36,27Zm16.7-10H5.93V9.11A1.6,1.6,0,0,1,7.52,7.52H16.3a7,7,0,0,1,5,2.69c1.47,1.67,3.84,3.67,6.91,3.67h14.3a1.57,1.57,0,0,1,1.58,1.59Z"/></svg>