<svg xmlns="http://www.w3.org/2000/svg" viewBox="0 0 50 50"><defs><style>.a{fill-rule:evenodd;}</style></defs><path class="a" d="M49.67,15a6.53,6.53,0,0,0-1.34-2.27,6.44,6.44,0,0,0-2.15-1.54,6.36,6.36,0,0,0-2.58-.55H30.85a6.38,6.38,0,0,1-4.52-1.87L23.68,6.07a6.43,6.43,0,0,0-4.53-1.88H7.4A6.42,6.42,0,0,0,1,10.59l.13,2.79A6.38,6.38,0,0,0,0,17.58l2,22.4A6.38,6.38,0,0,0,8.44,45.8H41.56A6.38,6.38,0,0,0,47.93,40l2-22.4A6.52,6.52,0,0,0,49.67,15ZM28.79,20a4.9,4.9,0,0,1,6.9,0,4.83,4.83,0,0,1,0,6.86A4.86,4.86,0,1,1,28.79,20ZM6.4,10.59A6.39,6.39,0,0,0,4.21,11l0-.45A3.21,3.21,0,0,1,7.4,7.39H19.15a3.19,3.19,0,0,1,2.26.94l2.27,2.26ZM40.37,38H24.11a1.59,1.59,0,0,1-1.63-1.62c0-1.62,1.63-6.47,9.76-6.47S42,34.77,42,36.39A1.59,1.59,0,0,1,40.37,38Z"/></svg>