<svg width="50" height="50" viewBox="0 0 50 50" fill="none" xmlns="http://www.w3.org/2000/svg">
<path d="M36.4326 21.6972C35.9776 21.242 35.3604 20.9862 34.7169 20.9862C34.0733 20.9862 33.4562 21.242 33.0011 21.6972C32.5461 22.1524 32.2904 22.7698 32.2904 23.4136V25.8409H37.1433V23.4136C37.1433 22.7698 36.8877 22.1524 36.4326 21.6972Z" fill="black"/>
<path fill-rule="evenodd" clip-rule="evenodd" d="M43.5975 10.5949H30.8515C29.1538 10.5945 27.5257 9.91984 26.3254 8.71918L23.6751 6.06883C22.4748 4.86818 20.8467 4.19346 19.149 4.1931H7.39528C5.69741 4.1931 4.06909 4.86757 2.86852 6.06815C1.66794 7.26872 0.993468 8.89705 0.993468 10.5949L1.1215 13.3829C0.277726 14.6097 -0.109609 16.0934 0.0267941 17.5761L2.06577 39.9824C2.21031 41.573 2.94418 43.0521 4.1233 44.1294C5.30243 45.2066 6.84164 45.8042 8.43878 45.8049H41.5617C43.1589 45.8042 44.6981 45.2066 45.8772 44.1294C47.0563 43.0521 47.7902 41.573 47.9348 39.9824L49.9737 17.5761C50.0542 16.6901 49.9492 15.7971 49.6654 14.954C49.3815 14.1109 48.9251 13.3363 48.3251 12.6794C47.7252 12.0226 46.9949 11.4979 46.181 11.139C45.367 10.7801 44.4871 10.5948 43.5975 10.5949ZM6.403 10.5949C5.63478 10.5949 4.89857 10.7294 4.21358 10.979L4.19437 10.5341C4.21031 9.69575 4.55456 8.89712 5.15313 8.30993C5.7517 7.72273 6.55678 7.39385 7.39528 7.39401H19.149C19.9979 7.39419 20.8119 7.73154 21.412 8.33187L23.6751 10.5949H6.403ZM39.5698 23.4136V26.0254C40.8801 26.4284 41.9962 27.4745 41.9962 28.9965V34.8221C41.9962 36.8028 40.1012 37.9777 38.3566 37.9777H31.0772C29.3326 37.9777 27.4375 36.8028 27.4375 34.8221V28.9965C27.4375 27.4745 28.5537 26.4284 29.864 26.0254V23.4136C29.864 22.126 30.3752 20.8912 31.2853 19.9808C32.1954 19.0704 33.4298 18.5589 34.7169 18.5589C36.0039 18.5589 37.2383 19.0704 38.1484 19.9808C39.0585 20.8912 39.5698 22.126 39.5698 23.4136Z" fill="black"/>
</svg>
