<svg xmlns="http://www.w3.org/2000/svg" viewBox="0 0 50 50"><defs><style>.a{fill-rule:evenodd;}</style></defs><path class="a" d="M47.24,17.5v-2a4.76,4.76,0,0,0-4.76-4.77H28.18c-1.66,0-3.23-1.12-4.53-2.59A10.06,10.06,0,0,0,16.3,4.34H7.52A4.78,4.78,0,0,0,2.75,9.11V17.5A4.77,4.77,0,0,0,0,22.41l2,16.28a7.93,7.93,0,0,0,7.88,7H40a7.93,7.93,0,0,0,7.89-7l2-16.28A4.75,4.75,0,0,0,47.24,17.5ZM42,36.39C42,38,40.1,39,38.36,39H31.08c-1.75,0-3.64-1-3.64-2.61V31.57c0-1.26,1.11-2.12,2.42-2.45V27a3.7,3.7,0,0,1,1.43-2.84,5.58,5.58,0,0,1,6.86,0A3.69,3.69,0,0,1,39.57,27v2.16c1.31.33,2.43,1.19,2.43,2.45Zm2.06-19.34H5.93V9.11A1.6,1.6,0,0,1,7.52,7.52H16.3a7,7,0,0,1,5,2.69c1.47,1.67,3.84,3.67,6.91,3.67h14.3a1.57,1.57,0,0,1,1.58,1.59ZM37.14,27v2H32.29V27A1.84,1.84,0,0,1,33,25.54,2.7,2.7,0,0,1,34.72,25a2.67,2.67,0,0,1,1.71.59A1.81,1.81,0,0,1,37.14,27Z"/></svg>