<svg width="50" height="50" viewBox="0 0 50 50" fill="none" xmlns="http://www.w3.org/2000/svg">
<path d="M28.7906 0H12.25C10.5924 0 9.00268 0.65848 7.83058 1.83058C6.65848 3.00269 6 4.5924 6 6.25V43.75C6 45.4076 6.65848 46.9973 7.83058 48.1694C9.00268 49.3415 10.5924 50 12.25 50H37.25C38.9076 50 40.4973 49.3415 41.6694 48.1694C42.8415 46.9973 43.5 45.4076 43.5 43.75V14.7094C43.4998 13.8806 43.1705 13.0859 42.5844 12.5L31 0.915625C30.4141 0.329533 29.6194 0.000176992 28.7906 0V0ZM29.4375 10.9375V4.6875L38.8125 14.0625H32.5625C31.7337 14.0625 30.9388 13.7333 30.3528 13.1472C29.7667 12.5612 29.4375 11.7663 29.4375 10.9375ZM19.6063 30.7938C19.461 30.939 19.2885 31.0543 19.0987 31.1329C18.9089 31.2115 18.7054 31.252 18.5 31.252C18.2946 31.252 18.0911 31.2115 17.9013 31.1329C17.7115 31.0543 17.539 30.939 17.3937 30.7938C17.2485 30.6485 17.1332 30.476 17.0546 30.2862C16.976 30.0964 16.9355 29.8929 16.9355 29.6875C16.9355 29.4821 16.976 29.2786 17.0546 29.0888C17.1332 28.899 17.2485 28.7265 17.3937 28.5812L23.6437 22.3312C23.7889 22.1857 23.9613 22.0703 24.1511 21.9915C24.341 21.9128 24.5445 21.8722 24.75 21.8722C24.9555 21.8722 25.159 21.9128 25.3489 21.9915C25.5387 22.0703 25.7111 22.1857 25.8563 22.3312L32.1063 28.5812C32.2515 28.7265 32.3668 28.899 32.4454 29.0888C32.524 29.2786 32.5645 29.4821 32.5645 29.6875C32.5645 29.8929 32.524 30.0964 32.4454 30.2862C32.3668 30.476 32.2515 30.6485 32.1063 30.7938C31.961 30.939 31.7885 31.0543 31.5987 31.1329C31.4089 31.2115 31.2054 31.252 31 31.252C30.7946 31.252 30.5911 31.2115 30.4013 31.1329C30.2115 31.0543 30.039 30.939 29.8937 30.7938L26.3125 27.2094V39.0625C26.3125 39.4769 26.1479 39.8743 25.8549 40.1674C25.5618 40.4604 25.1644 40.625 24.75 40.625C24.3356 40.625 23.9382 40.4604 23.6451 40.1674C23.3521 39.8743 23.1875 39.4769 23.1875 39.0625V27.2094L19.6063 30.7938Z" fill="black"/>
</svg>
