<svg width="50" height="50" viewBox="0 0 50 50" fill="none" xmlns="http://www.w3.org/2000/svg">
<path d="M29.0406 -0.00100708H12.5C10.8424 -0.00100708 9.25268 0.657473 8.08058 1.82958C6.90848 3.00168 6.25 4.59139 6.25 6.24899V43.749C6.25 45.4066 6.90848 46.9963 8.08058 48.1684C9.25268 49.3405 10.8424 49.999 12.5 49.999H37.5C39.1576 49.999 40.7473 49.3405 41.9194 48.1684C43.0915 46.9963 43.75 45.4066 43.75 43.749V14.7084C43.7498 13.8796 43.4205 13.0849 42.8344 12.499L31.25 0.914618C30.6641 0.328526 29.8694 -0.000830088 29.0406 -0.00100708V-0.00100708ZM29.6875 10.9365V4.68649L39.0625 14.0615H32.8125C31.9837 14.0615 31.1888 13.7323 30.6028 13.1462C30.0167 12.5602 29.6875 11.7653 29.6875 10.9365ZM14.0625 28.124C13.6481 28.124 13.2507 27.9594 12.9576 27.6663C12.6646 27.3733 12.5 26.9759 12.5 26.5615C12.5 26.1471 12.6646 25.7497 12.9576 25.4566C13.2507 25.1636 13.6481 24.999 14.0625 24.999H35.9375C36.3519 24.999 36.7493 25.1636 37.0424 25.4566C37.3354 25.7497 37.5 26.1471 37.5 26.5615C37.5 26.9759 37.3354 27.3733 37.0424 27.6663C36.7493 27.9594 36.3519 28.124 35.9375 28.124H14.0625ZM12.5 32.8115C12.5 32.3971 12.6646 31.9997 12.9576 31.7066C13.2507 31.4136 13.6481 31.249 14.0625 31.249H35.9375C36.3519 31.249 36.7493 31.4136 37.0424 31.7066C37.3354 31.9997 37.5 32.3971 37.5 32.8115C37.5 33.2259 37.3354 33.6233 37.0424 33.9163C36.7493 34.2094 36.3519 34.374 35.9375 34.374H14.0625C13.6481 34.374 13.2507 34.2094 12.9576 33.9163C12.6646 33.6233 12.5 33.2259 12.5 32.8115ZM14.0625 40.624C13.6481 40.624 13.2507 40.4594 12.9576 40.1663C12.6646 39.8733 12.5 39.4759 12.5 39.0615C12.5 38.6471 12.6646 38.2497 12.9576 37.9566C13.2507 37.6636 13.6481 37.499 14.0625 37.499H26.5625C26.9769 37.499 27.3743 37.6636 27.6674 37.9566C27.9604 38.2497 28.125 38.6471 28.125 39.0615C28.125 39.4759 27.9604 39.8733 27.6674 40.1663C27.3743 40.4594 26.9769 40.624 26.5625 40.624H14.0625Z" fill="black"/>
</svg>
