<svg width="50" height="50" viewBox="0 0 50 50" fill="none" xmlns="http://www.w3.org/2000/svg">
<path d="M30.8515 10.5949H43.5975C44.4871 10.5948 45.367 10.7801 46.181 11.139C46.9949 11.4979 47.7252 12.0226 48.3251 12.6794C48.9251 13.3363 49.3815 14.1109 49.6654 14.954C49.9492 15.7971 50.0542 16.6901 49.9737 17.5761L47.9348 39.9824C47.7902 41.573 47.0563 43.0521 45.8772 44.1294C44.6981 45.2066 43.1589 45.8042 41.5617 45.8049H8.43878C6.84164 45.8042 5.30243 45.2066 4.1233 44.1294C2.94418 43.0521 2.21031 41.573 2.06577 39.9824L0.0267941 17.5761C-0.109609 16.0934 0.277726 14.6097 1.1215 13.3829L0.993468 10.5949C0.993468 8.89705 1.66794 7.26872 2.86852 6.06815C4.06909 4.86757 5.69741 4.1931 7.39528 4.1931H19.149C20.8467 4.19346 22.4748 4.86817 23.6751 6.06883L26.3254 8.71918C27.5257 9.91984 29.1538 10.5945 30.8515 10.5949ZM4.21358 10.979C4.89857 10.7293 5.63478 10.5949 6.403 10.5949H23.6751L21.412 8.33187C20.8119 7.73154 19.9979 7.39419 19.149 7.39401H7.39528C6.55678 7.39385 5.7517 7.72273 5.15313 8.30993C4.55456 8.89712 4.21031 9.69575 4.19437 10.5341L4.21358 10.979Z" fill="black"/>
</svg>
