<svg width="50" height="50" viewBox="0 0 50 50" fill="none" xmlns="http://www.w3.org/2000/svg">
<path fill-rule="evenodd" clip-rule="evenodd" d="M4.14998 5.73982C3.25606 6.63374 2.75387 7.84614 2.75387 9.11032V17.4995C1.83938 17.9255 1.08364 18.6307 0.595401 19.5135C0.107165 20.3963 -0.0883817 21.4113 0.0369069 22.4123L2.07066 38.695C2.31079 40.6166 3.24452 42.3843 4.69635 43.6658C6.14817 44.9474 8.01809 45.6545 9.95462 45.6543H40.0382C41.9758 45.656 43.8473 44.9496 45.3005 43.6679C46.7536 42.3863 47.6883 40.6177 47.9285 38.695L49.9623 22.4123C50.2292 20.2832 49.0535 18.3416 47.2422 17.4995V15.4658C47.2422 14.2016 46.74 12.9892 45.8461 12.0953C44.9521 11.2014 43.7397 10.6992 42.4756 10.6992H28.1757C26.5233 10.6992 24.9503 9.58063 23.6475 8.10616C21.8965 6.12325 19.348 4.34372 16.3037 4.34372H7.52047C6.25629 4.34372 5.04389 4.84591 4.14998 5.73982ZM44.0644 17.0547H5.9316V9.11032C5.9316 8.68893 6.099 8.28479 6.39697 7.98682C6.69494 7.68885 7.09908 7.52145 7.52047 7.52145H16.3037C18.0706 7.52145 19.831 8.58282 21.2674 10.2098C22.7418 11.8781 25.1124 13.8769 28.1757 13.8769H42.4756C42.8969 13.8769 43.3011 14.0443 43.5991 14.3423C43.897 14.6403 44.0644 15.0444 44.0644 15.4658V17.0547Z" fill="black"/>
</svg>
