<svg width="50" height="50" viewBox="0 0 50 50" fill="none" xmlns="http://www.w3.org/2000/svg">
<path fill-rule="evenodd" clip-rule="evenodd" d="M4.14998 5.74083C3.25606 6.63474 2.75387 7.84715 2.75387 9.11133V17.5005C1.83938 17.9265 1.08364 18.6317 0.595401 19.5145C0.107165 20.3973 -0.0883817 21.4123 0.0369069 22.4133L2.07066 38.696C2.31079 40.6176 3.24452 42.3853 4.69635 43.6668C6.14817 44.9484 8.01809 45.6555 9.95462 45.6553H40.0382C41.9758 45.6571 43.8473 44.9506 45.3005 43.669C46.7536 42.3873 47.6883 40.6187 47.9285 38.696L49.9623 22.4133C50.2292 20.2842 49.0535 18.3426 47.2422 17.5005V15.4668C47.2422 14.2026 46.74 12.9902 45.8461 12.0963C44.9521 11.2024 43.7397 10.7002 42.4756 10.7002H28.1757C26.5233 10.7002 24.9503 9.58163 23.6475 8.10716C21.8965 6.12426 19.348 4.34473 16.3037 4.34473H7.52047C6.25629 4.34473 5.04389 4.84692 4.14998 5.74083ZM44.0644 17.0557H5.93161V9.11133C5.93161 8.68993 6.099 8.2858 6.39697 7.98783C6.69494 7.68986 7.09908 7.52246 7.52047 7.52246H16.3037C18.0706 7.52246 19.831 8.58382 21.2674 10.2108C22.7418 11.8791 25.1124 13.8779 28.1757 13.8779H42.4756C42.8969 13.8779 43.3011 14.0453 43.5991 14.3433C43.897 14.6413 44.0644 15.0454 44.0644 15.4668V17.0557Z" fill="black"/>
</svg>
