<svg width="50" height="50" viewBox="0 0 50 50" fill="none" xmlns="http://www.w3.org/2000/svg">
<path d="M30.8515 10.5961H43.5975C44.4871 10.5961 45.367 10.7814 46.181 11.1403C46.9949 11.4992 47.7252 12.0238 48.3251 12.6806C48.9251 13.3375 49.3815 14.1122 49.6654 14.9553C49.9492 15.7984 50.0542 16.6914 49.9737 17.5773L47.9348 39.9837C47.7902 41.5742 47.0563 43.0534 45.8772 44.1306C44.6981 45.2079 43.1589 45.8055 41.5617 45.8061H8.43877C6.84164 45.8055 5.30243 45.2079 4.1233 44.1306C2.94418 43.0534 2.21031 41.5742 2.06577 39.9837L0.0267941 17.5773C-0.109609 16.0946 0.277726 14.611 1.1215 13.3841L0.993468 10.5961C0.993468 8.89828 1.66794 7.26996 2.86852 6.06938C4.06909 4.86881 5.69741 4.19434 7.39528 4.19434H19.149C20.8467 4.1947 22.4748 4.86941 23.6751 6.07007L26.3254 8.72042C27.5257 9.92107 29.1538 10.5958 30.8515 10.5961V10.5961ZM4.21358 10.9803C4.89857 10.7306 5.63478 10.5961 6.403 10.5961H23.6751L21.412 8.33311C20.8119 7.73278 19.9979 7.39542 19.149 7.39524H7.39528C6.55678 7.39509 5.7517 7.72397 5.15313 8.31116C4.55456 8.89836 4.21031 9.69698 4.19437 10.5353L4.21358 10.9803V10.9803Z" fill="black"/>
</svg>
