<svg width="50" height="50" viewBox="0 0 50 50" fill="none" xmlns="http://www.w3.org/2000/svg">
<path d="M16.7238 40.254C16.7238 40.4556 16.4919 40.6169 16.1996 40.6169C15.8669 40.6472 15.6351 40.4859 15.6351 40.254C15.6351 40.0524 15.8669 39.8911 16.1593 39.8911C16.4617 39.8609 16.7238 40.0222 16.7238 40.254ZM13.5887 39.8004C13.5181 40.002 13.7198 40.2339 14.0222 40.2944C14.2843 40.3952 14.5867 40.2944 14.6472 40.0927C14.7077 39.8911 14.5161 39.6593 14.2137 39.5685C13.9516 39.498 13.6593 39.5988 13.5887 39.8004ZM18.0444 39.629C17.752 39.6996 17.5504 39.8911 17.5806 40.123C17.6109 40.3246 17.873 40.4556 18.1754 40.3851C18.4677 40.3145 18.6694 40.123 18.6391 39.9214C18.6089 39.7298 18.3367 39.5988 18.0444 39.629ZM24.6774 1C10.6956 1 0 11.6149 0 25.5968C0 36.7762 7.03629 46.3427 17.0867 49.7097C18.377 49.9415 18.8306 49.1452 18.8306 48.4899C18.8306 47.8649 18.8004 44.4173 18.8004 42.3004C18.8004 42.3004 11.744 43.8125 10.2621 39.2964C10.2621 39.2964 9.1129 36.3629 7.45968 35.6069C7.45968 35.6069 5.15121 34.0242 7.62097 34.0544C7.62097 34.0544 10.131 34.256 11.5121 36.6552C13.7198 40.5464 17.4194 39.4274 18.8609 38.7621C19.0927 37.1492 19.748 36.0302 20.4738 35.3649C14.8387 34.7399 9.15323 33.9234 9.15323 24.2258C9.15323 21.4536 9.91936 20.0625 11.5323 18.2883C11.2702 17.6331 10.4133 14.9315 11.7944 11.4435C13.9012 10.7883 18.75 14.1653 18.75 14.1653C20.7661 13.6008 22.9335 13.3085 25.0806 13.3085C27.2278 13.3085 29.3952 13.6008 31.4113 14.1653C31.4113 14.1653 36.2601 10.7782 38.3669 11.4435C39.748 14.9415 38.8911 17.6331 38.629 18.2883C40.2419 20.0726 41.2298 21.4637 41.2298 24.2258C41.2298 33.9536 35.2923 34.7298 29.6573 35.3649C30.5847 36.1613 31.371 37.6734 31.371 40.0423C31.371 43.4395 31.3407 47.6431 31.3407 48.4698C31.3407 49.125 31.8044 49.9214 33.0847 49.6895C43.1653 46.3427 50 36.7762 50 25.5968C50 11.6149 38.6593 1 24.6774 1ZM9.79839 35.7681C9.66734 35.869 9.69758 36.1008 9.86895 36.2923C10.0302 36.4536 10.2621 36.5242 10.3931 36.3931C10.5242 36.2923 10.494 36.0605 10.3226 35.869C10.1613 35.7077 9.92944 35.6371 9.79839 35.7681ZM8.70968 34.9516C8.63911 35.0827 8.73992 35.244 8.94153 35.3448C9.10282 35.4456 9.30444 35.4153 9.375 35.2742C9.44556 35.1431 9.34476 34.9819 9.14314 34.881C8.94153 34.8206 8.78024 34.8508 8.70968 34.9516ZM11.9758 38.5403C11.8145 38.6714 11.875 38.9738 12.1069 39.1653C12.3387 39.3972 12.631 39.4274 12.7621 39.2661C12.8931 39.1351 12.8327 38.8327 12.631 38.6411C12.4093 38.4093 12.1069 38.379 11.9758 38.5403ZM10.8266 37.0585C10.6653 37.1593 10.6653 37.4214 10.8266 37.6532C10.9879 37.8851 11.2601 37.9859 11.3911 37.8851C11.5524 37.754 11.5524 37.4919 11.3911 37.2601C11.25 37.0282 10.9879 36.9274 10.8266 37.0585Z" fill="black"/>
</svg>
