<svg width="50" height="50" viewBox="0 0 50 50" fill="none" xmlns="http://www.w3.org/2000/svg">
<path d="M16.7238 40.253C16.7238 40.4546 16.4919 40.6159 16.1996 40.6159C15.8669 40.6462 15.6351 40.4849 15.6351 40.253C15.6351 40.0514 15.8669 39.8901 16.1593 39.8901C16.4617 39.8599 16.7238 40.0212 16.7238 40.253ZM13.5887 39.7994C13.5181 40.001 13.7198 40.2329 14.0222 40.2933C14.2843 40.3942 14.5867 40.2933 14.6472 40.0917C14.7077 39.8901 14.5161 39.6583 14.2137 39.5675C13.9516 39.497 13.6593 39.5978 13.5887 39.7994ZM18.0444 39.628C17.752 39.6986 17.5504 39.8901 17.5806 40.122C17.6109 40.3236 17.873 40.4546 18.1754 40.3841C18.4677 40.3135 18.6694 40.122 18.6391 39.9204C18.6089 39.7288 18.3367 39.5978 18.0444 39.628ZM24.6774 0.998993C10.6956 0.998993 0 11.6139 0 25.5958C0 36.7752 7.03629 46.3417 17.0867 49.7087C18.377 49.9405 18.8306 49.1442 18.8306 48.4889C18.8306 47.8639 18.8004 44.4163 18.8004 42.2994C18.8004 42.2994 11.744 43.8115 10.2621 39.2954C10.2621 39.2954 9.1129 36.3619 7.45968 35.6058C7.45968 35.6058 5.15121 34.0232 7.62097 34.0534C7.62097 34.0534 10.131 34.255 11.5121 36.6542C13.7198 40.5454 17.4194 39.4264 18.8609 38.7611C19.0927 37.1482 19.748 36.0292 20.4738 35.3639C14.8387 34.7389 9.15323 33.9224 9.15323 24.2248C9.15323 21.4526 9.91936 20.0615 11.5323 18.2873C11.2702 17.6321 10.4133 14.9304 11.7944 11.4425C13.9012 10.7873 18.75 14.1643 18.75 14.1643C20.7661 13.5998 22.9335 13.3075 25.0806 13.3075C27.2278 13.3075 29.3952 13.5998 31.4113 14.1643C31.4113 14.1643 36.2601 10.7772 38.3669 11.4425C39.748 14.9405 38.8911 17.6321 38.629 18.2873C40.2419 20.0716 41.2298 21.4627 41.2298 24.2248C41.2298 33.9526 35.2923 34.7288 29.6573 35.3639C30.5847 36.1603 31.371 37.6724 31.371 40.0413C31.371 43.4385 31.3407 47.6421 31.3407 48.4688C31.3407 49.124 31.8044 49.9204 33.0847 49.6885C43.1653 46.3417 50 36.7752 50 25.5958C50 11.6139 38.6593 0.998993 24.6774 0.998993ZM9.79839 35.7671C9.66734 35.8679 9.69758 36.0998 9.86895 36.2913C10.0302 36.4526 10.2621 36.5232 10.3931 36.3921C10.5242 36.2913 10.494 36.0595 10.3226 35.8679C10.1613 35.7067 9.92943 35.6361 9.79839 35.7671ZM8.70968 34.9506C8.63911 35.0817 8.73992 35.2429 8.94153 35.3438C9.10282 35.4446 9.30444 35.4143 9.375 35.2732C9.44556 35.1421 9.34476 34.9809 9.14314 34.88C8.94153 34.8196 8.78024 34.8498 8.70968 34.9506ZM11.9758 38.5393C11.8145 38.6704 11.875 38.9728 12.1069 39.1643C12.3387 39.3962 12.631 39.4264 12.7621 39.2651C12.8931 39.1341 12.8327 38.8317 12.631 38.6401C12.4093 38.4083 12.1069 38.378 11.9758 38.5393ZM10.8266 37.0575C10.6653 37.1583 10.6653 37.4204 10.8266 37.6522C10.9879 37.8841 11.2601 37.9849 11.3911 37.8841C11.5524 37.753 11.5524 37.4909 11.3911 37.2591C11.25 37.0272 10.9879 36.9264 10.8266 37.0575Z" fill="black"/>
</svg>
