<svg width="50" height="50" viewBox="0 0 50 50" fill="none" xmlns="http://www.w3.org/2000/svg">
<path d="M0 5.55556C0 4.08213 0.585315 2.66905 1.62718 1.62718C2.66905 0.585315 4.08213 0 5.55556 0H16.6667C18.1401 0 19.5532 0.585315 20.595 1.62718C21.6369 2.66905 22.2222 4.08213 22.2222 5.55556V16.6667C22.2222 18.1401 21.6369 19.5532 20.595 20.595C19.5532 21.6369 18.1401 22.2222 16.6667 22.2222H5.55556C4.08213 22.2222 2.66905 21.6369 1.62718 20.595C0.585315 19.5532 0 18.1401 0 16.6667V5.55556ZM27.7778 5.55556C27.7778 4.08213 28.3631 2.66905 29.405 1.62718C30.4468 0.585315 31.8599 0 33.3333 0H44.4444C45.9179 0 47.3309 0.585315 48.3728 1.62718C49.4147 2.66905 50 4.08213 50 5.55556V16.6667C50 18.1401 49.4147 19.5532 48.3728 20.595C47.3309 21.6369 45.9179 22.2222 44.4444 22.2222H33.3333C31.8599 22.2222 30.4468 21.6369 29.405 20.595C28.3631 19.5532 27.7778 18.1401 27.7778 16.6667V5.55556ZM0 33.3333C0 31.8599 0.585315 30.4468 1.62718 29.405C2.66905 28.3631 4.08213 27.7778 5.55556 27.7778H16.6667C18.1401 27.7778 19.5532 28.3631 20.595 29.405C21.6369 30.4468 22.2222 31.8599 22.2222 33.3333V44.4444C22.2222 45.9179 21.6369 47.3309 20.595 48.3728C19.5532 49.4147 18.1401 50 16.6667 50H5.55556C4.08213 50 2.66905 49.4147 1.62718 48.3728C0.585315 47.3309 0 45.9179 0 44.4444V33.3333ZM27.7778 33.3333C27.7778 31.8599 28.3631 30.4468 29.405 29.405C30.4468 28.3631 31.8599 27.7778 33.3333 27.7778H44.4444C45.9179 27.7778 47.3309 28.3631 48.3728 29.405C49.4147 30.4468 50 31.8599 50 33.3333V44.4444C50 45.9179 49.4147 47.3309 48.3728 48.3728C47.3309 49.4147 45.9179 50 44.4444 50H33.3333C31.8599 50 30.4468 49.4147 29.405 48.3728C28.3631 47.3309 27.7778 45.9179 27.7778 44.4444V33.3333Z" fill="black"/>
</svg>
