<svg width="50" height="50" viewBox="0 0 50 50" fill="none" xmlns="http://www.w3.org/2000/svg">
<path d="M0 3.57143C0 2.62423 0.376274 1.71582 1.04605 1.04605C1.71582 0.376274 2.62423 0 3.57143 0H10.7143C11.6615 0 12.5699 0.376274 13.2397 1.04605C13.9094 1.71582 14.2857 2.62423 14.2857 3.57143V10.7143C14.2857 11.6615 13.9094 12.5699 13.2397 13.2397C12.5699 13.9094 11.6615 14.2857 10.7143 14.2857H3.57143C2.62423 14.2857 1.71582 13.9094 1.04605 13.2397C0.376274 12.5699 0 11.6615 0 10.7143V3.57143ZM17.8571 3.57143C17.8571 2.62423 18.2334 1.71582 18.9032 1.04605C19.573 0.376274 20.4814 0 21.4286 0H28.5714C29.5186 0 30.427 0.376274 31.0968 1.04605C31.7666 1.71582 32.1429 2.62423 32.1429 3.57143V10.7143C32.1429 11.6615 31.7666 12.5699 31.0968 13.2397C30.427 13.9094 29.5186 14.2857 28.5714 14.2857H21.4286C20.4814 14.2857 19.573 13.9094 18.9032 13.2397C18.2334 12.5699 17.8571 11.6615 17.8571 10.7143V3.57143ZM35.7143 3.57143C35.7143 2.62423 36.0906 1.71582 36.7603 1.04605C37.4301 0.376274 38.3385 0 39.2857 0H46.4286C47.3758 0 48.2842 0.376274 48.954 1.04605C49.6237 1.71582 50 2.62423 50 3.57143V10.7143C50 11.6615 49.6237 12.5699 48.954 13.2397C48.2842 13.9094 47.3758 14.2857 46.4286 14.2857H39.2857C38.3385 14.2857 37.4301 13.9094 36.7603 13.2397C36.0906 12.5699 35.7143 11.6615 35.7143 10.7143V3.57143ZM0 21.4286C0 20.4814 0.376274 19.573 1.04605 18.9032C1.71582 18.2334 2.62423 17.8571 3.57143 17.8571H10.7143C11.6615 17.8571 12.5699 18.2334 13.2397 18.9032C13.9094 19.573 14.2857 20.4814 14.2857 21.4286V28.5714C14.2857 29.5186 13.9094 30.427 13.2397 31.0968C12.5699 31.7666 11.6615 32.1429 10.7143 32.1429H3.57143C2.62423 32.1429 1.71582 31.7666 1.04605 31.0968C0.376274 30.427 0 29.5186 0 28.5714V21.4286ZM17.8571 21.4286C17.8571 20.4814 18.2334 19.573 18.9032 18.9032C19.573 18.2334 20.4814 17.8571 21.4286 17.8571H28.5714C29.5186 17.8571 30.427 18.2334 31.0968 18.9032C31.7666 19.573 32.1429 20.4814 32.1429 21.4286V28.5714C32.1429 29.5186 31.7666 30.427 31.0968 31.0968C30.427 31.7666 29.5186 32.1429 28.5714 32.1429H21.4286C20.4814 32.1429 19.573 31.7666 18.9032 31.0968C18.2334 30.427 17.8571 29.5186 17.8571 28.5714V21.4286ZM35.7143 21.4286C35.7143 20.4814 36.0906 19.573 36.7603 18.9032C37.4301 18.2334 38.3385 17.8571 39.2857 17.8571H46.4286C47.3758 17.8571 48.2842 18.2334 48.954 18.9032C49.6237 19.573 50 20.4814 50 21.4286V28.5714C50 29.5186 49.6237 30.427 48.954 31.0968C48.2842 31.7666 47.3758 32.1429 46.4286 32.1429H39.2857C38.3385 32.1429 37.4301 31.7666 36.7603 31.0968C36.0906 30.427 35.7143 29.5186 35.7143 28.5714V21.4286ZM0 39.2857C0 38.3385 0.376274 37.4301 1.04605 36.7603C1.71582 36.0906 2.62423 35.7143 3.57143 35.7143H10.7143C11.6615 35.7143 12.5699 36.0906 13.2397 36.7603C13.9094 37.4301 14.2857 38.3385 14.2857 39.2857V46.4286C14.2857 47.3758 13.9094 48.2842 13.2397 48.954C12.5699 49.6237 11.6615 50 10.7143 50H3.57143C2.62423 50 1.71582 49.6237 1.04605 48.954C0.376274 48.2842 0 47.3758 0 46.4286V39.2857ZM17.8571 39.2857C17.8571 38.3385 18.2334 37.4301 18.9032 36.7603C19.573 36.0906 20.4814 35.7143 21.4286 35.7143H28.5714C29.5186 35.7143 30.427 36.0906 31.0968 36.7603C31.7666 37.4301 32.1429 38.3385 32.1429 39.2857V46.4286C32.1429 47.3758 31.7666 48.2842 31.0968 48.954C30.427 49.6237 29.5186 50 28.5714 50H21.4286C20.4814 50 19.573 49.6237 18.9032 48.954C18.2334 48.2842 17.8571 47.3758 17.8571 46.4286V39.2857ZM35.7143 39.2857C35.7143 38.3385 36.0906 37.4301 36.7603 36.7603C37.4301 36.0906 38.3385 35.7143 39.2857 35.7143H46.4286C47.3758 35.7143 48.2842 36.0906 48.954 36.7603C49.6237 37.4301 50 38.3385 50 39.2857V46.4286C50 47.3758 49.6237 48.2842 48.954 48.954C48.2842 49.6237 47.3758 50 46.4286 50H39.2857C38.3385 50 37.4301 49.6237 36.7603 48.954C36.0906 48.2842 35.7143 47.3758 35.7143 46.4286V39.2857Z" fill="black"/>
</svg>
