<svg width="50" height="50" viewBox="0 0 50 50" fill="none" xmlns="http://www.w3.org/2000/svg">
<path d="M21.571 1.13588L4.42569 13.9949C2.99691 15.0807 2.13965 16.7667 2.13965 18.5669V44.2849C2.13965 47.4282 4.71144 50 7.85475 50H18.285C18.8372 50 19.285 49.5523 19.285 49V30.9971C19.285 30.4449 19.7327 29.9971 20.285 29.9971H29.7152C30.2674 29.9971 30.7152 30.4449 30.7152 30.9971V49C30.7152 49.5523 31.1629 50 31.7152 50H42.1454C45.2887 50 47.8605 47.4282 47.8605 44.2849V18.5669C47.8605 16.7667 47.0032 15.0807 45.5744 13.9949L28.4291 1.13588C26.4003 -0.378626 23.5999 -0.378626 21.571 1.13588Z" fill="black"/>
</svg>
