<svg width="50" height="50" viewBox="0 0 50 50" fill="none" xmlns="http://www.w3.org/2000/svg">
<path d="M21.571 1.13487L4.42569 13.9938C2.99691 15.0797 2.13965 16.7657 2.13965 18.5659V44.2839C2.13965 47.4272 4.71144 49.999 7.85475 49.999H18.285C18.8372 49.999 19.285 49.5513 19.285 48.999V30.9961C19.285 30.4438 19.7327 29.9961 20.285 29.9961H29.7152C30.2674 29.9961 30.7152 30.4438 30.7152 30.9961V48.999C30.7152 49.5513 31.1629 49.999 31.7152 49.999H42.1454C45.2887 49.999 47.8605 47.4272 47.8605 44.2839V18.5659C47.8605 16.7657 47.0032 15.0797 45.5744 13.9938L28.4291 1.13487C26.4003 -0.379633 23.5999 -0.379633 21.571 1.13487Z" fill="black"/>
</svg>
