<svg width="50" height="50" viewBox="0 0 50 50" fill="none" xmlns="http://www.w3.org/2000/svg">
<path d="M31.0676 18.3534C31.2108 17.6806 30.6477 17.0675 29.9652 17.1531L19.4731 18.468C19.0516 18.5208 18.7095 18.8341 18.6199 19.2493L18.536 19.6381C18.417 20.1895 18.7774 20.7301 19.3321 20.8324L20.7928 21.1018C22.4092 21.4867 22.7281 22.0695 22.3762 23.6805L18.3186 42.748C17.252 47.6798 18.8959 50 22.7611 50C25.6868 50 29.0738 48.6792 30.7009 46.8461C30.7781 46.7591 30.8284 46.6527 30.8525 46.539C30.9953 45.864 30.0746 45.2445 29.4186 45.4585C28.7407 45.6796 28.0658 45.7774 27.528 45.7774C26.016 45.7774 25.4662 44.7163 25.8566 42.8469L31.0676 18.3534ZM31.7451 5.49813C31.7451 6.95633 31.1658 8.3548 30.1347 9.3859C29.1036 10.417 27.7051 10.9963 26.2469 10.9963C24.7887 10.9963 23.3903 10.417 22.3592 9.3859C21.3281 8.3548 20.7488 6.95633 20.7488 5.49813C20.7488 4.03994 21.3281 2.64146 22.3592 1.61036C23.3903 0.579265 24.7887 0 26.2469 0C27.7051 0 29.1036 0.579265 30.1347 1.61036C31.1658 2.64146 31.7451 4.03994 31.7451 5.49813Z" fill="black"/>
</svg>
