<svg width="50" height="50" viewBox="0 0 50 50" fill="none" xmlns="http://www.w3.org/2000/svg">
<path d="M34.3753 7.81239C34.375 5.97962 35.0193 4.20513 36.1954 2.79937C37.3715 1.39362 39.0046 0.446117 40.8088 0.122643C42.613 -0.200832 44.4735 0.120319 46.0649 1.02991C47.6562 1.9395 48.877 3.3796 49.5136 5.09826C50.1503 6.81692 50.1623 8.7047 49.5475 10.4313C48.9327 12.1579 47.7303 13.6134 46.1507 14.5431C44.5711 15.4729 42.7148 15.8176 40.9066 15.5171C39.0984 15.2166 37.4535 14.2899 36.2596 12.8992L15.2662 22.6478C15.7488 24.1771 15.7488 25.8179 15.2662 27.3471L36.2596 37.0958C37.5216 35.6283 39.2835 34.6815 41.2039 34.4388C43.1243 34.1962 45.0663 34.675 46.6537 35.7825C48.2412 36.89 49.3609 38.5473 49.7958 40.4332C50.2308 42.3191 49.9501 44.2993 49.0081 45.9901C48.0661 47.6808 46.5299 48.9617 44.6972 49.5845C42.8645 50.2073 40.8659 50.1277 39.0886 49.361C37.3113 48.5943 35.8819 47.1952 35.0775 45.4348C34.2731 43.6745 34.1509 41.6782 34.7346 39.8329L13.7412 30.0843C12.702 31.2953 11.3167 32.159 9.77185 32.5592C8.22696 32.9594 6.59655 32.877 5.09993 32.3229C3.6033 31.7689 2.31228 30.7699 1.40052 29.4602C0.488755 28.1506 0 26.5932 0 24.9975C0 23.4018 0.488755 21.8443 1.40052 20.5347C2.31228 19.2251 3.6033 18.226 5.09993 17.672C6.59655 17.118 8.22696 17.0355 9.77185 17.4358C11.3167 17.836 12.702 18.6997 13.7412 19.9107L34.7346 10.1621C34.4957 9.40175 34.3745 8.60935 34.3753 7.81239V7.81239Z" fill="black"/>
</svg>
