<svg width="50" height="50" viewBox="0 0 50 50" fill="none" xmlns="http://www.w3.org/2000/svg">
<path d="M15.25 9.375C15.25 6.8886 16.2377 4.50403 17.9959 2.74587C19.754 0.98772 22.1386 0 24.625 0C27.1114 0 29.496 0.98772 31.2541 2.74587C33.0123 4.50403 34 6.8886 34 9.375V25C34 27.4864 33.0123 29.871 31.2541 31.6291C29.496 33.3873 27.1114 34.375 24.625 34.375C22.1386 34.375 19.754 33.3873 17.9959 31.6291C16.2377 29.871 15.25 27.4864 15.25 25V9.375Z" fill="black"/>
<path d="M10.5625 20.3125C10.9769 20.3125 11.3743 20.4771 11.6674 20.7701C11.9604 21.0632 12.125 21.4606 12.125 21.875V25C12.125 28.3152 13.442 31.4946 15.7862 33.8388C18.1304 36.183 21.3098 37.5 24.625 37.5C27.9402 37.5 31.1196 36.183 33.4638 33.8388C35.808 31.4946 37.125 28.3152 37.125 25V21.875C37.125 21.4606 37.2896 21.0632 37.5826 20.7701C37.8757 20.4771 38.2731 20.3125 38.6875 20.3125C39.1019 20.3125 39.4993 20.4771 39.7924 20.7701C40.0854 21.0632 40.25 21.4606 40.25 21.875V25C40.25 28.8735 38.8113 32.609 36.2129 35.4817C33.6145 38.3544 30.0416 40.1595 26.1875 40.5469V46.875H35.5625C35.9769 46.875 36.3743 47.0396 36.6674 47.3326C36.9604 47.6257 37.125 48.0231 37.125 48.4375C37.125 48.8519 36.9604 49.2493 36.6674 49.5424C36.3743 49.8354 35.9769 50 35.5625 50H13.6875C13.2731 50 12.8757 49.8354 12.5826 49.5424C12.2896 49.2493 12.125 48.8519 12.125 48.4375C12.125 48.0231 12.2896 47.6257 12.5826 47.3326C12.8757 47.0396 13.2731 46.875 13.6875 46.875H23.0625V40.5469C19.2084 40.1595 15.6355 38.3544 13.0371 35.4817C10.4387 32.609 8.99995 28.8735 9 25V21.875C9 21.4606 9.16462 21.0632 9.45765 20.7701C9.75067 20.4771 10.1481 20.3125 10.5625 20.3125Z" fill="black"/>
</svg>
