<svg width="51" height="50" viewBox="0 0 51 50" fill="none" xmlns="http://www.w3.org/2000/svg">
<path d="M45 19.231C46.5301 19.231 47.9975 19.8388 49.0795 20.9207C50.1614 22.0027 50.7692 23.4701 50.7692 25.0002C50.7692 26.5303 50.1614 27.9977 49.0795 29.0797C47.9975 30.1616 46.5301 30.7694 45 30.7694C43.4699 30.7694 42.0025 30.1616 40.9205 29.0797C39.8386 27.9977 39.2308 26.5303 39.2308 25.0002C39.2308 23.4701 39.8386 22.0027 40.9205 20.9207C42.0025 19.8388 43.4699 19.231 45 19.231ZM25.7692 19.231C27.2993 19.231 28.7667 19.8388 29.8487 20.9207C30.9306 22.0027 31.5385 23.4701 31.5385 25.0002C31.5385 26.5303 30.9306 27.9977 29.8487 29.0797C28.7667 30.1616 27.2993 30.7694 25.7692 30.7694C24.2391 30.7694 22.7717 30.1616 21.6898 29.0797C20.6078 27.9977 20 26.5303 20 25.0002C20 23.4701 20.6078 22.0027 21.6898 20.9207C22.7717 19.8388 24.2391 19.231 25.7692 19.231ZM6.53846 19.231C8.06855 19.231 9.53598 19.8388 10.6179 20.9207C11.6999 22.0027 12.3077 23.4701 12.3077 25.0002C12.3077 26.5303 11.6999 27.9977 10.6179 29.0797C9.53598 30.1616 8.06855 30.7694 6.53846 30.7694C5.00836 30.7694 3.54094 30.1616 2.45899 29.0797C1.37705 27.9977 0.769226 26.5303 0.769226 25.0002C0.769226 23.4701 1.37705 22.0027 2.45899 20.9207C3.54094 19.8388 5.00836 19.231 6.53846 19.231Z" fill="black"/>
</svg>
