<svg width="51" height="50" viewBox="0 0 51 50" fill="none" xmlns="http://www.w3.org/2000/svg">
<path d="M45 19.2298C46.5301 19.2298 47.9975 19.8376 49.0795 20.9195C50.1614 22.0015 50.7692 23.4689 50.7692 24.999C50.7692 26.5291 50.1614 27.9965 49.0795 29.0785C47.9975 30.1604 46.5301 30.7682 45 30.7682C43.4699 30.7682 42.0025 30.1604 40.9205 29.0785C39.8386 27.9965 39.2308 26.5291 39.2308 24.999C39.2308 23.4689 39.8386 22.0015 40.9205 20.9195C42.0025 19.8376 43.4699 19.2298 45 19.2298ZM25.7692 19.2298C27.2993 19.2298 28.7667 19.8376 29.8487 20.9195C30.9306 22.0015 31.5385 23.4689 31.5385 24.999C31.5385 26.5291 30.9306 27.9965 29.8487 29.0785C28.7667 30.1604 27.2993 30.7682 25.7692 30.7682C24.2391 30.7682 22.7717 30.1604 21.6898 29.0785C20.6078 27.9965 20 26.5291 20 24.999C20 23.4689 20.6078 22.0015 21.6898 20.9195C22.7717 19.8376 24.2391 19.2298 25.7692 19.2298ZM6.53846 19.2298C8.06855 19.2298 9.53598 19.8376 10.6179 20.9195C11.6999 22.0015 12.3077 23.4689 12.3077 24.999C12.3077 26.5291 11.6999 27.9965 10.6179 29.0785C9.53598 30.1604 8.06855 30.7682 6.53846 30.7682C5.00836 30.7682 3.54094 30.1604 2.45899 29.0785C1.37705 27.9965 0.769226 26.5291 0.769226 24.999C0.769226 23.4689 1.37705 22.0015 2.45899 20.9195C3.54094 19.8376 5.00836 19.2298 6.53846 19.2298Z" fill="black"/>
</svg>
