<svg width="50" height="50" viewBox="0 0 50 50" fill="none" xmlns="http://www.w3.org/2000/svg">
<path fill-rule="evenodd" clip-rule="evenodd" d="M10.5571 -0.00100708H41.8429C43.5024 -0.00100708 45.0939 0.657473 46.2673 1.82958C47.4408 3.00168 48.1 4.59139 48.1 6.24899V43.749C48.1 45.4066 47.4408 46.9963 46.2673 48.1684C45.0939 49.3405 43.5024 49.999 41.8429 49.999H10.5571C8.89764 49.999 7.30612 49.3405 6.13268 48.1684C4.95923 46.9963 4.3 45.4066 4.3 43.749V40.224H2.16666C1.59203 40.224 1.04093 39.9948 0.634607 39.587C0.228271 39.1791 0 38.6258 0 38.049C0 37.4721 0.228271 36.9189 0.634607 36.511C1.04093 36.1031 1.59203 35.874 2.16666 35.874H4.3V27.174H2.16666C1.59203 27.174 1.04093 26.9448 0.634607 26.537C0.228271 26.1291 0 25.5758 0 24.999C0 24.4221 0.228271 23.8689 0.634607 23.461C1.04093 23.0531 1.59203 22.824 2.16666 22.824H4.3V14.124H2.16666C1.59203 14.124 1.04093 13.8948 0.634607 13.4869C0.228271 13.0791 0 12.5258 0 11.949C0 11.3721 0.228271 10.8189 0.634607 10.411C1.04093 10.0031 1.59203 9.77399 2.16666 9.77399H4.3V6.24899C4.3 4.59139 4.95923 3.00168 6.13268 1.82958C7.30612 0.657473 8.89764 -0.00100708 10.5571 -0.00100708ZM8.66686 14.124H10.8333C11.408 14.124 11.9591 13.8948 12.3654 13.4869C12.7717 13.0791 13 12.5258 13 11.949C13 11.3721 12.7717 10.8189 12.3654 10.411C11.9591 10.0031 11.408 9.77399 10.8333 9.77399H8.66686V14.124ZM8.66686 22.824H10.8333C11.408 22.824 11.9591 23.0531 12.3654 23.461C12.7717 23.8689 13 24.4221 13 24.999C13 25.5758 12.7717 26.1291 12.3654 26.537C11.9591 26.9448 11.408 27.174 10.8333 27.174H8.66686V22.824ZM8.66686 35.874H10.8333C11.408 35.874 11.9591 36.1031 12.3654 36.511C12.7717 36.9189 13 37.4721 13 38.049C13 38.6258 12.7717 39.1791 12.3654 39.587C11.9591 39.9948 11.408 40.224 10.8333 40.224H8.66686V35.874ZM43.7386 21.0353L43.7386 7.1487L43.7386 7.14279C43.7354 5.59911 42.483 4.3487 40.9386 4.3487H32.2358C30.6894 4.3487 29.4358 5.6023 29.4358 7.1487V21.0405C29.4362 21.2498 29.4918 21.4553 29.5969 21.6364C29.7029 21.8189 29.8554 21.9701 30.039 22.0743C30.2225 22.1786 30.4305 22.2322 30.6415 22.2298C30.8526 22.2273 31.0592 22.1688 31.2403 22.0603L36.5872 18.8494L41.934 22.058C42.1149 22.1664 42.3214 22.2248 42.5322 22.2274C42.7431 22.2299 42.9509 22.1765 43.1343 22.0725C43.3178 21.9685 43.4704 21.8178 43.5766 21.6355C43.6827 21.4533 43.7386 21.2462 43.7386 21.0353Z" fill="black"/>
</svg>
