<svg width="50" height="50" viewBox="0 0 50 50" fill="none" xmlns="http://www.w3.org/2000/svg">
<path fill-rule="evenodd" clip-rule="evenodd" d="M10.5571 0H41.8429C43.5024 0 45.0939 0.65848 46.2673 1.83058C47.4408 3.00268 48.1 4.5924 48.1 6.25V43.75C48.1 45.4076 47.4408 46.9973 46.2673 48.1694C45.0939 49.3415 43.5024 50 41.8429 50H10.5571C8.89764 50 7.30612 49.3415 6.13268 48.1694C4.95923 46.9973 4.3 45.4076 4.3 43.75V40.225H2.16666C1.59203 40.225 1.04093 39.9958 0.634607 39.588C0.228271 39.1801 0 38.6268 0 38.05C0 37.4732 0.228271 36.9199 0.634607 36.512C1.04093 36.1042 1.59203 35.875 2.16666 35.875H4.3V27.175H2.16666C1.59203 27.175 1.04093 26.9459 0.634607 26.538C0.228271 26.1301 0 25.5768 0 25C0 24.4232 0.228271 23.8699 0.634607 23.462C1.04093 23.0541 1.59203 22.825 2.16666 22.825H4.3V14.125H2.16666C1.59203 14.125 1.04093 13.8958 0.634607 13.488C0.228271 13.0801 0 12.5268 0 11.95C0 11.3732 0.228271 10.8199 0.634607 10.412C1.04093 10.0042 1.59203 9.775 2.16666 9.775H4.3V6.25C4.3 4.5924 4.95923 3.00268 6.13268 1.83058C7.30612 0.65848 8.89764 0 10.5571 0ZM8.66686 14.125H10.8333C11.408 14.125 11.9591 13.8958 12.3654 13.488C12.7717 13.0801 13 12.5268 13 11.95C13 11.3732 12.7717 10.8199 12.3654 10.412C11.9591 10.0042 11.408 9.775 10.8333 9.775H8.66686V14.125ZM8.66686 22.825H10.8333C11.408 22.825 11.9591 23.0541 12.3654 23.462C12.7717 23.8699 13 24.4232 13 25C13 25.5768 12.7717 26.1301 12.3654 26.538C11.9591 26.9459 11.408 27.175 10.8333 27.175H8.66686V22.825ZM8.66686 35.875H10.8333C11.408 35.875 11.9591 36.1042 12.3654 36.512C12.7717 36.9199 13 37.4732 13 38.05C13 38.6268 12.7717 39.1801 12.3654 39.588C11.9591 39.9958 11.408 40.225 10.8333 40.225H8.66686V35.875ZM43.7386 21.0363L43.7386 7.1497L43.7386 7.14379C43.7354 5.60011 42.483 4.3497 40.9386 4.3497H32.2358C30.6894 4.3497 29.4358 5.60331 29.4358 7.1497V21.0416C29.4362 21.2508 29.4918 21.4563 29.5969 21.6374C29.7029 21.8199 29.8554 21.9711 30.039 22.0753C30.2225 22.1796 30.4305 22.2332 30.6415 22.2308C30.8526 22.2283 31.0592 22.1699 31.2403 22.0614L36.5872 18.8504L41.934 22.059C42.1149 22.1674 42.3214 22.2258 42.5322 22.2284C42.7431 22.2309 42.9509 22.1775 43.1343 22.0735C43.3178 21.9696 43.4704 21.8188 43.5766 21.6365C43.6827 21.4543 43.7386 21.2472 43.7386 21.0363Z" fill="black"/>
</svg>
