<svg width="50" height="50" viewBox="0 0 50 50" fill="none" xmlns="http://www.w3.org/2000/svg">
<path d="M49.3692 6.1756L49.3722 6.18293C49.7723 6.58506 49.9969 7.12925 49.9969 7.69655C49.9969 8.26456 49.7717 8.80941 49.3707 9.21169L46.4115 12.1737C45.5735 13.0125 44.2141 13.0129 43.3757 12.1745L37.8264 6.62515C36.9886 5.78734 36.9883 4.42907 37.8257 3.59086L40.7864 0.627338C41.1888 0.225009 41.7346 -0.00100708 42.3037 -0.00100708C42.8727 -0.00100708 43.4185 0.225009 43.8209 0.627338L49.3692 6.1756ZM40.3423 18.2405C41.1802 17.4024 41.1801 16.0437 40.3421 15.2057L34.7927 9.65626C33.9545 8.81812 32.5956 8.81817 31.7576 9.65638L4.03249 37.3855C3.79626 37.6217 3.61842 37.9098 3.51313 38.2268L0.0579353 48.5881C-0.00472701 48.777 -0.0136241 48.9796 0.0322394 49.1732C0.0781029 49.3669 0.176921 49.544 0.317645 49.6847C0.45837 49.8254 0.635458 49.9242 0.829116 49.9701C1.02277 50.016 1.22537 50.0071 1.41426 49.9444L11.7756 46.4892C12.0922 46.3852 12.3802 46.2088 12.6168 45.9742L40.3423 18.2405Z" fill="black"/>
</svg>
