<svg width="50" height="50" viewBox="0 0 50 50" fill="none" xmlns="http://www.w3.org/2000/svg">
<path d="M44.4978 9.94129L44.5002 9.94715C44.8203 10.2689 45 10.7042 45 11.158C45 11.6125 44.8198 12.0483 44.499 12.3702L42.1313 14.7398C41.4608 15.4108 40.3732 15.4111 39.7024 14.7404L35.2623 10.3009C34.592 9.63068 34.5917 8.54406 35.2618 7.87349L37.6306 5.50268C37.9526 5.18081 38.3893 5 38.8446 5C39.2999 5 39.7366 5.18081 40.0586 5.50268L44.4978 9.94129ZM37.2753 19.5932C37.9457 18.9227 37.9457 17.8358 37.2752 17.1654L32.835 12.7258C32.1644 12.0553 31.0772 12.0553 30.4066 12.7259L8.22372 34.9092C8.03471 35.0982 7.89242 35.3286 7.80818 35.5822L5.04367 43.8713C4.99353 44.0224 4.98641 44.1845 5.02311 44.3394C5.0598 44.4943 5.13887 44.636 5.25146 44.7486C5.36406 44.8611 5.50575 44.9402 5.66069 44.9769C5.81564 45.0136 5.97774 45.0065 6.12887 44.9563L14.419 42.1922C14.6723 42.1089 14.9028 41.9679 15.0921 41.7801L37.2753 19.5932Z" fill="black"/>
</svg>
