<svg width="50" height="50" viewBox="0 0 50 50" fill="none" xmlns="http://www.w3.org/2000/svg">
<path d="M43.5229 10.6942L43.5252 10.6998C43.8293 11.0054 44 11.419 44 11.8501C44 12.2818 43.8288 12.6959 43.524 13.0016L41.2747 15.2528C40.6378 15.8903 39.6045 15.8905 38.9673 15.2534L34.7492 11.0359C34.1124 10.3991 34.1122 9.36686 34.7487 8.72982L36.9991 6.47754C37.305 6.17177 37.7198 6 38.1524 6C38.5849 6 38.9997 6.17177 39.3056 6.47754L43.5229 10.6942ZM36.6616 19.8635C37.2985 19.2266 37.2984 18.194 36.6614 17.5571L32.4433 13.3395C31.8062 12.7025 30.7733 12.7026 30.1363 13.3396L9.06253 34.4138C8.88298 34.5933 8.7478 34.8122 8.66777 35.0531L6.04148 42.9277C5.99386 43.0713 5.98709 43.2252 6.02195 43.3724C6.05681 43.5196 6.13193 43.6542 6.23889 43.7611C6.34585 43.8681 6.48046 43.9432 6.62766 43.978C6.77486 44.0129 6.92885 44.0061 7.07243 43.9585L14.948 41.3326C15.1887 41.2535 15.4076 41.1195 15.5875 40.9411L36.6616 19.8635Z" fill="black"/>
</svg>
