<svg width="50" height="50" viewBox="0 0 50 50" fill="none" xmlns="http://www.w3.org/2000/svg">
<path d="M30.4912 -0.00100423C30.7264 -0.00142425 30.9593 0.044513 31.1768 0.134181C31.3942 0.22385 31.5918 0.355491 31.7583 0.521579L49.476 18.2393C49.8115 18.5749 50 19.03 50 19.5046C50 19.9791 49.8115 20.4343 49.476 20.7699C47.7579 22.488 45.639 22.8745 44.0963 22.8745C43.4627 22.8745 42.8972 22.8101 42.4498 22.7349L31.2321 33.9526C31.5274 35.1424 31.719 36.3555 31.8048 37.5784C31.9695 40.0911 31.6903 43.6168 29.2277 46.0794C28.8921 46.4149 28.437 46.6034 27.9624 46.6034C27.4879 46.6034 27.0327 46.4149 26.6971 46.0794L16.5712 35.957L5.18173 47.3465C4.48376 48.0444 0.818516 50.575 0.120546 49.877C-0.577425 49.1791 1.95317 45.5103 2.65114 44.8159L14.0406 33.4264L3.91822 23.3005C3.58271 22.9649 3.39423 22.5097 3.39423 22.0352C3.39423 21.5606 3.58271 21.1055 3.91822 20.7699C6.3808 18.3073 9.90645 18.0245 12.4191 18.1928C13.6421 18.2784 14.8552 18.47 16.045 18.7655L27.2626 7.55139C27.169 7.00632 27.1211 6.45437 27.1195 5.90132C27.1195 4.36221 27.506 2.24324 29.2277 0.521579C29.5631 0.187022 30.0175 -0.000903578 30.4912 -0.00100423Z" fill="black"/>
</svg>
