<svg width="50" height="50" viewBox="0 0 50 50" fill="none" xmlns="http://www.w3.org/2000/svg">
<path d="M30.4912 2.8545e-06C30.7264 -0.00041717 30.9593 0.0455201 31.1768 0.135189C31.3942 0.224857 31.5918 0.356498 31.7583 0.522586L49.476 18.2403C49.8115 18.5759 50 19.031 50 19.5056C50 19.9802 49.8115 20.4353 49.476 20.7709C47.7579 22.489 45.639 22.8755 44.0963 22.8755C43.4627 22.8755 42.8972 22.8111 42.4498 22.7359L31.2321 33.9536C31.5274 35.1434 31.719 36.3566 31.8048 37.5794C31.9695 40.0921 31.6903 43.6178 29.2277 46.0804C28.8921 46.4159 28.437 46.6044 27.9624 46.6044C27.4879 46.6044 27.0327 46.4159 26.6971 46.0804L16.5712 35.958L5.18173 47.3475C4.48376 48.0454 0.818516 50.576 0.120546 49.878C-0.577425 49.1801 1.95317 45.5113 2.65114 44.8169L14.0406 33.4274L3.91822 23.3015C3.58271 22.9659 3.39423 22.5107 3.39423 22.0362C3.39423 21.5616 3.58271 21.1065 3.91822 20.7709C6.3808 18.3083 9.90645 18.0255 12.4191 18.1938C13.6421 18.2794 14.8552 18.471 16.045 18.7665L27.2626 7.5524C27.169 7.00733 27.1211 6.45538 27.1195 5.90233C27.1195 4.36321 27.506 2.24425 29.2277 0.522586C29.5631 0.188029 30.0175 0.000103502 30.4912 2.8545e-06V2.8545e-06Z" fill="black"/>
</svg>
