<svg width="50" height="50" viewBox="0 0 50 50" fill="none" xmlns="http://www.w3.org/2000/svg">
<path fill-rule="evenodd" clip-rule="evenodd" d="M25 0.000976562C22.7909 0.000976562 21 1.79184 21 4.00098V21.001H4C1.79086 21.001 0 22.7918 0 25.001C0 27.2101 1.79086 29.001 4 29.001H21V46.001C21 48.2101 22.7909 50.001 25 50.001C27.2091 50.001 29 48.2101 29 46.001V29.001H46C48.2091 29.001 50 27.2101 50 25.001C50 22.7918 48.2091 21.001 46 21.001H29V4.00098C29 1.79184 27.2091 0.000976562 25 0.000976562Z" fill="black"/>
</svg>
