<svg width="50" height="50" viewBox="0 0 50 50" fill="none" xmlns="http://www.w3.org/2000/svg">
<path d="M36.4326 21.6984C35.9776 21.2432 35.3604 20.9875 34.7169 20.9875C34.0733 20.9875 33.4562 21.2432 33.0011 21.6984C32.5461 22.1537 32.2904 22.7711 32.2904 23.4148V25.8422H37.1433V23.4148C37.1433 22.7711 36.8877 22.1537 36.4326 21.6984Z" fill="black"/>
<path fill-rule="evenodd" clip-rule="evenodd" d="M43.5975 10.5961H30.8515C29.1538 10.5958 27.5257 9.92107 26.3254 8.72042L23.6751 6.07007C22.4748 4.86941 20.8467 4.1947 19.149 4.19434H7.39528C5.69741 4.19434 4.06909 4.86881 2.86852 6.06938C1.66794 7.26996 0.993468 8.89828 0.993468 10.5961L1.1215 13.3841C0.277726 14.611 -0.109609 16.0946 0.0267941 17.5773L2.06577 39.9837C2.21031 41.5742 2.94418 43.0534 4.1233 44.1306C5.30243 45.2079 6.84164 45.8055 8.43878 45.8061H41.5617C43.1589 45.8055 44.6981 45.2079 45.8772 44.1306C47.0563 43.0534 47.7902 41.5742 47.9348 39.9837L49.9737 17.5773C50.0542 16.6914 49.9492 15.7984 49.6654 14.9553C49.3815 14.1122 48.9251 13.3375 48.3251 12.6806C47.7252 12.0238 46.9949 11.4992 46.181 11.1403C45.367 10.7814 44.4871 10.5961 43.5975 10.5961ZM6.403 10.5961C5.63478 10.5961 4.89857 10.7306 4.21358 10.9803L4.19437 10.5353C4.21031 9.69698 4.55456 8.89836 5.15313 8.31116C5.7517 7.72397 6.55678 7.39509 7.39528 7.39524H19.149C19.9979 7.39542 20.8119 7.73278 21.412 8.33311L23.6751 10.5961H6.403ZM39.5698 23.4148V26.0267C40.8801 26.4296 41.9962 27.4758 41.9962 28.9977V34.8234C41.9962 36.8041 40.1012 37.9789 38.3566 37.9789H31.0772C29.3326 37.9789 27.4375 36.8041 27.4375 34.8234V28.9977C27.4375 27.4758 28.5537 26.4296 29.864 26.0267V23.4148C29.864 22.1273 30.3752 20.8925 31.2853 19.982C32.1954 19.0716 33.4298 18.5601 34.7169 18.5601C36.0039 18.5601 37.2383 19.0716 38.1484 19.982C39.0585 20.8925 39.5698 22.1273 39.5698 23.4148Z" fill="black"/>
</svg>
