<svg width="50" height="50" viewBox="0 0 50 50" fill="none" xmlns="http://www.w3.org/2000/svg">
<path d="M36.4326 25.5379C35.9776 25.1614 35.3604 24.9499 34.7169 24.9499C34.0733 24.9499 33.4562 25.1614 33.0011 25.5379C32.5461 25.9144 32.2904 26.425 32.2904 26.9574V28.9649H37.1433V26.9574C37.1433 26.425 36.8877 25.9144 36.4326 25.5379Z" fill="black"/>
<path fill-rule="evenodd" clip-rule="evenodd" d="M2.75387 9.11133C2.75387 7.84715 3.25606 6.63474 4.14998 5.74083C5.04389 4.84692 6.25629 4.34473 7.52047 4.34473H16.3037C19.348 4.34473 21.8965 6.12426 23.6475 8.10716C24.9503 9.58163 26.5233 10.7002 28.1757 10.7002H42.4756C43.7397 10.7002 44.9521 11.2024 45.8461 12.0963C46.74 12.9902 47.2422 14.2026 47.2422 15.4668V17.5005C49.0535 18.3426 50.2292 20.2842 49.9623 22.4133L47.9285 38.696C47.6883 40.6187 46.7536 42.3873 45.3005 43.669C43.8473 44.9506 41.9758 45.6571 40.0382 45.6553H9.95462C8.01809 45.6555 6.14817 44.9484 4.69635 43.6669C3.24452 42.3853 2.31079 40.6176 2.07066 38.696L0.0369069 22.4133C-0.0883817 21.4123 0.107165 20.3973 0.595401 19.5145C1.08364 18.6317 1.83938 17.9265 2.75387 17.5005V9.11133ZM5.9316 17.0557H44.0644V15.4668C44.0644 15.0454 43.897 14.6413 43.5991 14.3433C43.3011 14.0453 42.8969 13.8779 42.4756 13.8779H28.1757C25.1124 13.8779 22.7418 11.8791 21.2674 10.2108C19.831 8.58382 18.0706 7.52246 16.3037 7.52246H7.52047C7.09908 7.52246 6.69494 7.68986 6.39697 7.98783C6.099 8.2858 5.9316 8.68993 5.9316 9.11133V17.0557ZM39.5698 26.9574V29.1175C40.8801 29.4507 41.9962 30.3159 41.9962 31.5746V36.3925C41.9962 38.0306 40.1012 39.0023 38.3566 39.0023H31.0772C29.3326 39.0023 27.4375 38.0306 27.4375 36.3925V31.5746C27.4375 30.3159 28.5537 29.4507 29.864 29.1175V26.9574C29.864 25.8926 30.3752 24.8714 31.2853 24.1184C32.1954 23.3655 33.4298 22.9425 34.7169 22.9425C36.0039 22.9425 37.2383 23.3655 38.1484 24.1184C39.0585 24.8714 39.5698 25.8926 39.5698 26.9574Z" fill="black"/>
</svg>
