<svg width="50" height="50" viewBox="0 0 50 50" fill="none" xmlns="http://www.w3.org/2000/svg">
<path fill-rule="evenodd" clip-rule="evenodd" d="M2.75387 9.11133C2.75387 7.84715 3.25606 6.63474 4.14998 5.74083C5.04389 4.84692 6.25629 4.34473 7.52047 4.34473H16.3037C19.348 4.34473 21.8965 6.12426 23.6475 8.10716C24.9503 9.58163 26.5233 10.7002 28.1757 10.7002H42.4756C43.7397 10.7002 44.9521 11.2024 45.8461 12.0963C46.74 12.9902 47.2422 14.2026 47.2422 15.4668V17.5005C49.0535 18.3426 50.2292 20.2842 49.9623 22.4133L47.9285 38.696C47.6883 40.6187 46.7536 42.3873 45.3005 43.669C43.8473 44.9506 41.9758 45.6571 40.0382 45.6553H9.95462C8.01809 45.6555 6.14817 44.9484 4.69635 43.6669C3.24452 42.3853 2.31079 40.6176 2.07066 38.696L0.0369069 22.4133C-0.0883817 21.4123 0.107165 20.3973 0.595401 19.5145C1.08364 18.6317 1.83938 17.9265 2.75387 17.5005V9.11133ZM5.9316 17.0557H44.0644V15.4668C44.0644 15.0454 43.897 14.6413 43.5991 14.3433C43.3011 14.0453 42.8969 13.8779 42.4756 13.8779H28.1757C25.1124 13.8779 22.7418 11.8791 21.2674 10.2108C19.831 8.58382 18.0706 7.52246 16.3037 7.52246H7.52047C7.09908 7.52246 6.69494 7.68986 6.39697 7.98783C6.099 8.2858 5.9316 8.68993 5.9316 9.11133V17.0557ZM22.4812 37.6831C22.4812 39.0172 24.1078 39.0172 24.1078 39.0172H40.3735C40.3735 39.0172 42 39.0172 42 37.6831C42 36.349 40.3735 32.3467 32.2406 32.3467C24.1078 32.3467 22.4812 36.349 22.4812 37.6831ZM35.6911 29.8403C34.776 30.5909 33.5348 31.0126 32.2406 31.0126C30.9464 31.0126 29.7053 30.5909 28.7901 29.8403C27.875 29.0897 27.3609 28.0717 27.3609 27.0102C27.3609 25.9488 27.875 24.9308 28.7901 24.1802C29.7053 23.4296 30.9464 23.0079 32.2406 23.0079C33.5348 23.0079 34.776 23.4296 35.6911 24.1802C36.6062 24.9308 37.1203 25.9488 37.1203 27.0102C37.1203 28.0717 36.6062 29.0897 35.6911 29.8403Z" fill="black"/>
</svg>
