<svg width="52" height="50" viewBox="0 0 52 50" fill="none" xmlns="http://www.w3.org/2000/svg">
<path d="M25.3564 0.00734409C17.9963 0.20176 11.4695 3.56238 7.02573 8.78383L3.3596 5.14548C2.49862 4.28449 0.99884 4.89552 0.99884 6.14533V18.0602C0.99884 18.8379 1.60986 19.4489 2.38753 19.4489H14.3024C15.5523 19.4489 16.1633 17.9492 15.2745 17.0882L10.9696 12.7555C14.5524 8.395 19.9405 5.56208 25.9952 5.56208C37.9934 5.56208 47.492 16.5049 45.0479 28.9198C43.5481 36.6131 37.2435 42.7511 29.5502 44.112C18.9962 46.0006 9.60869 39.2794 7.19237 29.7808C6.85909 28.6143 5.74814 27.781 4.5261 27.781C2.72081 27.781 1.3599 29.4752 1.80428 31.1972C4.55387 42.0012 14.3302 50 25.9952 50C40.0487 50 51.3803 38.4184 50.9915 24.2816C50.6027 10.728 38.9099 -0.32594 25.3564 0.00734409Z" fill="black"/>
</svg>
