<svg width="50" height="50" viewBox="0 0 50 50" fill="none" xmlns="http://www.w3.org/2000/svg">
<path fill-rule="evenodd" clip-rule="evenodd" d="M43.5975 10.5961H30.8515C29.1538 10.5958 27.5257 9.92107 26.3254 8.72042L23.6751 6.07007C22.4748 4.86941 20.8467 4.1947 19.149 4.19434H7.39528C5.69741 4.19434 4.06909 4.86881 2.86852 6.06938C1.66794 7.26996 0.993468 8.89828 0.993468 10.5961L1.1215 13.3841C0.277726 14.611 -0.109609 16.0946 0.0267941 17.5773L2.06577 39.9837C2.21031 41.5742 2.94418 43.0534 4.1233 44.1306C5.30243 45.2079 6.84164 45.8055 8.43878 45.8061H41.5617C43.1589 45.8055 44.6981 45.2079 45.8772 44.1306C47.0563 43.0534 47.7902 41.5742 47.9348 39.9837L49.9737 17.5773C50.0542 16.6914 49.9492 15.7984 49.6654 14.9553C49.3815 14.1122 48.9251 13.3375 48.3251 12.6806C47.7252 12.0238 46.9949 11.4992 46.181 11.1403C45.367 10.7814 44.4871 10.5961 43.5975 10.5961ZM6.403 10.5961C5.63478 10.5961 4.89857 10.7306 4.21358 10.9803L4.19437 10.5353C4.21031 9.69698 4.55456 8.89836 5.15313 8.31116C5.7517 7.72397 6.55678 7.39509 7.39528 7.39524H19.149C19.9979 7.39542 20.8119 7.73278 21.412 8.33311L23.6751 10.5961H6.403ZM27.6258 17.5179C26.5589 17.232 25.4622 17.8652 25.1763 18.9321L20.5176 36.3188C20.2317 37.3857 20.8649 38.4824 21.9318 38.7682C22.9987 39.0541 24.0954 38.421 24.3813 37.354L29.04 19.9674C29.3259 18.9004 28.6928 17.8038 27.6258 17.5179Z" fill="black"/>
</svg>
