<svg width="52" height="50" viewBox="0 0 52 50" fill="none" xmlns="http://www.w3.org/2000/svg">
<path fill-rule="evenodd" clip-rule="evenodd" d="M41.492 17.9872C42.0785 23.0723 40.7236 28.1913 37.6984 32.3205C37.8254 32.4152 37.945 32.5193 38.0563 32.632L50.0888 44.6644C50.6749 45.2509 51.0039 46.0461 51.0036 46.8751C51.0033 47.7042 50.6737 48.4992 50.0873 49.0852C49.5008 49.6712 48.7056 50.0003 47.8766 50C47.0475 49.9997 46.2525 49.6701 45.6665 49.0836L33.634 37.0512C33.5219 36.936 33.4223 36.8177 33.3288 36.6932C29.2018 39.7214 24.0837 41.0799 18.9982 40.4971C13.9118 39.9142 9.23307 37.4322 5.89804 33.5478C2.56302 29.6634 0.817641 24.663 1.0111 19.547C1.20457 14.4309 3.3226 9.57661 6.94146 5.95516C10.5603 2.33371 15.4131 0.212201 20.529 0.0150768C25.6449 -0.182047 30.6466 1.55975 34.5334 4.892C38.4202 8.22424 40.9055 12.9012 41.492 17.9872ZM21.1968 35.9279C29.7596 35.9279 36.7011 28.9864 36.7011 20.4236C36.7011 11.8609 29.7596 4.91934 21.1968 4.91934C12.634 4.91934 5.6925 11.8609 5.6925 20.4236C5.6925 28.9864 12.634 35.9279 21.1968 35.9279Z" fill="black"/>
</svg>
