<svg width="50" height="50" viewBox="0 0 50 50" fill="none" xmlns="http://www.w3.org/2000/svg">
<path fill-rule="evenodd" clip-rule="evenodd" d="M20.6094 3.28223C21.9 -1.09277 28.1 -1.09277 29.3906 3.28223L29.7031 4.34473C29.896 4.99971 30.233 5.60323 30.6894 6.11102C31.1458 6.61881 31.7102 7.01799 32.341 7.2793C32.9718 7.54061 33.653 7.65742 34.3349 7.62115C35.0167 7.58489 35.6817 7.39647 36.2812 7.06973L37.2531 6.5416C41.2594 4.35723 45.6437 8.7416 43.4625 12.751L42.9313 13.7197C42.6045 14.3192 42.4161 14.9843 42.3798 15.6661C42.3436 16.3479 42.4604 17.0292 42.7217 17.66C42.983 18.2908 43.3822 18.8551 43.89 19.3116C44.3978 19.768 45.0013 20.105 45.6562 20.2979L46.7188 20.6104C51.0938 21.901 51.0938 28.101 46.7188 29.3916L45.6562 29.7041C45.0013 29.8969 44.3978 30.2339 43.89 30.6904C43.3822 31.1468 42.983 31.7111 42.7217 32.3419C42.4604 32.9727 42.3436 33.654 42.3798 34.3358C42.4161 35.0177 42.6045 35.6827 42.9313 36.2822L43.4594 37.2541C45.6437 41.2603 41.2594 45.6447 37.25 43.4635L36.2812 42.9322C35.6817 42.6055 35.0167 42.4171 34.3349 42.3808C33.653 42.3445 32.9718 42.4613 32.341 42.7226C31.7102 42.984 31.1458 43.3831 30.6894 43.8909C30.233 44.3987 29.896 45.0022 29.7031 45.6572L29.3906 46.7197C28.1 51.0947 21.9 51.0947 20.6094 46.7197L20.2969 45.6572C20.104 45.0022 19.767 44.3987 19.3106 43.8909C18.8542 43.3831 18.2898 42.984 17.659 42.7226C17.0282 42.4613 16.347 42.3445 15.6651 42.3808C14.9833 42.4171 14.3183 42.6055 13.7188 42.9322L12.7469 43.4604C8.74063 45.6447 4.35625 41.2604 6.5375 37.251L7.06875 36.2822C7.3955 35.6827 7.58391 35.0177 7.62018 34.3358C7.65644 33.654 7.53963 32.9727 7.27832 32.3419C7.01702 31.7111 6.61783 31.1468 6.11004 30.6904C5.60225 30.2339 4.99873 29.8969 4.34375 29.7041L3.28125 29.3916C-1.09375 28.101 -1.09375 21.901 3.28125 20.6104L4.34375 20.2979C7.14062 19.4729 8.4625 16.2822 7.06875 13.7197L6.54062 12.7479C4.35625 8.7416 8.74062 4.35723 12.75 6.53848L13.7188 7.06973C14.3183 7.39647 14.9833 7.58489 15.6651 7.62115C16.347 7.65742 17.0282 7.54061 17.659 7.2793C18.2898 7.01799 18.8542 6.61881 19.3106 6.11102C19.767 5.60323 20.104 4.99971 20.2969 4.34473L20.6094 3.28223ZM25 38.001C32.1797 38.001 38 32.1807 38 25.001C38 17.8213 32.1797 12.001 25 12.001C17.8203 12.001 12 17.8213 12 25.001C12 32.1807 17.8203 38.001 25 38.001Z" fill="black"/>
</svg>
