<svg width="50" height="50" viewBox="0 0 50 50" fill="none" xmlns="http://www.w3.org/2000/svg">
<path fill-rule="evenodd" clip-rule="evenodd" d="M20.6094 3.28125C21.9 -1.09375 28.1 -1.09375 29.3906 3.28125L29.7031 4.34375C29.896 4.99873 30.233 5.60225 30.6894 6.11004C31.1458 6.61783 31.7102 7.01702 32.341 7.27832C32.9718 7.53963 33.653 7.65644 34.3349 7.62018C35.0167 7.58391 35.6817 7.3955 36.2812 7.06875L37.2531 6.54062C41.2594 4.35625 45.6437 8.74062 43.4625 12.75L42.9313 13.7188C42.6045 14.3183 42.4161 14.9833 42.3798 15.6651C42.3436 16.347 42.4604 17.0282 42.7217 17.659C42.983 18.2898 43.3822 18.8542 43.89 19.3106C44.3978 19.767 45.0013 20.104 45.6562 20.2969L46.7188 20.6094C51.0938 21.9 51.0938 28.1 46.7188 29.3906L45.6562 29.7031C45.0013 29.896 44.3978 30.233 43.89 30.6894C43.3822 31.1458 42.983 31.7102 42.7217 32.341C42.4604 32.9718 42.3436 33.653 42.3798 34.3349C42.4161 35.0167 42.6045 35.6817 42.9313 36.2812L43.4594 37.2531C45.6437 41.2594 41.2594 45.6437 37.25 43.4625L36.2812 42.9313C35.6817 42.6045 35.0167 42.4161 34.3349 42.3798C33.653 42.3436 32.9718 42.4604 32.341 42.7217C31.7102 42.983 31.1458 43.3822 30.6894 43.89C30.233 44.3978 29.896 45.0013 29.7031 45.6562L29.3906 46.7188C28.1 51.0938 21.9 51.0938 20.6094 46.7188L20.2969 45.6562C20.104 45.0013 19.767 44.3978 19.3106 43.89C18.8542 43.3822 18.2898 42.983 17.659 42.7217C17.0282 42.4604 16.347 42.3436 15.6651 42.3798C14.9833 42.4161 14.3183 42.6045 13.7188 42.9313L12.7469 43.4594C8.74063 45.6437 4.35625 41.2594 6.5375 37.25L7.06875 36.2812C7.3955 35.6817 7.58391 35.0167 7.62018 34.3349C7.65644 33.653 7.53963 32.9718 7.27832 32.341C7.01702 31.7102 6.61783 31.1458 6.11004 30.6894C5.60225 30.233 4.99873 29.896 4.34375 29.7031L3.28125 29.3906C-1.09375 28.1 -1.09375 21.9 3.28125 20.6094L4.34375 20.2969C7.14062 19.4719 8.4625 16.2812 7.06875 13.7188L6.54062 12.7469C4.35625 8.74063 8.74062 4.35625 12.75 6.5375L13.7188 7.06875C14.3183 7.3955 14.9833 7.58391 15.6651 7.62018C16.347 7.65644 17.0282 7.53963 17.659 7.27832C18.2898 7.01702 18.8542 6.61783 19.3106 6.11004C19.767 5.60225 20.104 4.99873 20.2969 4.34375L20.6094 3.28125ZM25 38C32.1797 38 38 32.1797 38 25C38 17.8203 32.1797 12 25 12C17.8203 12 12 17.8203 12 25C12 32.1797 17.8203 38 25 38Z" fill="black"/>
</svg>
