<svg width="50" height="50" viewBox="0 0 50 50" fill="none" xmlns="http://www.w3.org/2000/svg">
<path d="M49.4844 35.3722L44.1251 32.691L44.122 32.6879L27.5068 41.0001C25.9319 41.7876 24.0725 41.7876 22.4945 41.0001L5.87927 32.691L0.516911 35.3722C0.36242 35.45 0.232583 35.5693 0.141866 35.7166C0.0511486 35.8639 0.00311425 36.0335 0.00311425 36.2065C0.00311425 36.3795 0.0511486 36.5491 0.141866 36.6964C0.232583 36.8438 0.36242 36.963 0.516911 37.0409L24.1663 48.8687C24.4254 48.998 24.711 49.0653 25.0006 49.0653C25.2902 49.0653 25.5759 48.998 25.835 48.8687L49.4844 37.0409C50.1718 36.6971 50.1718 35.7159 49.4844 35.3722Z" fill="black"/>
<path d="M25.0006 0.932709C24.711 0.932709 24.4254 1.00002 24.1663 1.12932L0.516911 12.954C0.361601 13.0316 0.230969 13.1509 0.139666 13.2985C0.0483634 13.4462 0 13.6163 0 13.7899C0 13.9635 0.0483634 14.1337 0.139666 14.2813C0.230969 14.429 0.361601 14.5483 0.516911 14.6258L24.1663 26.4474C24.4254 26.5767 24.711 26.644 25.0006 26.644C25.2902 26.644 25.5759 26.5767 25.835 26.4474L49.4844 14.6258C49.6387 14.5475 49.7684 14.4279 49.8589 14.2803C49.9495 14.1328 49.9974 13.963 49.9974 13.7899C49.9974 13.6168 49.9495 13.4471 49.8589 13.2995C49.7684 13.152 49.6387 13.0324 49.4844 12.954L25.835 1.12932C25.5759 1.00002 25.2902 0.932709 25.0006 0.932709Z" fill="black"/>
<path d="M49.4844 24.1631L44.1252 21.4819L27.5069 29.791C25.9319 30.5785 24.0726 30.5785 22.4945 29.791L5.8793 21.4819L0.516943 24.1631C0.362452 24.2409 0.232615 24.3602 0.141898 24.5075C0.0511814 24.6548 0.00314704 24.8244 0.00314704 24.9974C0.00314704 25.1704 0.0511814 25.34 0.141898 25.4874C0.232615 25.6347 0.362452 25.7539 0.516943 25.8318L24.1663 37.6565C24.4254 37.7858 24.7111 37.8531 25.0007 37.8531C25.2903 37.8531 25.5759 37.7858 25.835 37.6565L49.4844 25.8318C50.1719 25.488 50.1719 24.5068 49.4844 24.1631Z" fill="black"/>
</svg>
