<svg width="50" height="50" viewBox="0 0 50 50" fill="none" xmlns="http://www.w3.org/2000/svg">
<path d="M49.4844 35.373L44.1251 32.6919L44.122 32.6887L27.5068 41.001C25.9319 41.7885 24.0725 41.7885 22.4945 41.001L5.87927 32.6919L0.516911 35.373C0.36242 35.4509 0.232583 35.5701 0.141866 35.7175C0.0511486 35.8648 0.00311425 36.0344 0.00311425 36.2074C0.00311425 36.3804 0.0511486 36.55 0.141866 36.6973C0.232583 36.8446 0.36242 36.9639 0.516911 37.0417L24.1663 48.8696C24.4254 48.9989 24.711 49.0662 25.0006 49.0662C25.2902 49.0662 25.5759 48.9989 25.835 48.8696L49.4844 37.0417C50.1718 36.698 50.1718 35.7168 49.4844 35.373Z" fill="black"/>
<path d="M25.0006 0.933594C24.711 0.933594 24.4254 1.0009 24.1663 1.1302L0.516911 12.9549C0.361601 13.0324 0.230969 13.1517 0.139666 13.2994C0.0483634 13.447 0 13.6172 0 13.7908C0 13.9644 0.0483634 14.1346 0.139666 14.2822C0.230969 14.4299 0.361601 14.5492 0.516911 14.6267L24.1663 26.4483C24.4254 26.5776 24.711 26.6449 25.0006 26.6449C25.2902 26.6449 25.5759 26.5776 25.835 26.4483L49.4844 14.6267C49.6387 14.5483 49.7684 14.4288 49.8589 14.2812C49.9495 14.1337 49.9974 13.9639 49.9974 13.7908C49.9974 13.6177 49.9495 13.4479 49.8589 13.3004C49.7684 13.1528 49.6387 13.0333 49.4844 12.9549L25.835 1.1302C25.5759 1.0009 25.2902 0.933594 25.0006 0.933594Z" fill="black"/>
<path d="M49.4844 24.164L44.1252 21.4828L27.5069 29.7919C25.9319 30.5794 24.0726 30.5794 22.4945 29.7919L5.8793 21.4828L0.516943 24.164C0.362452 24.2418 0.232615 24.3611 0.141898 24.5084C0.0511814 24.6557 0.00314704 24.8253 0.00314704 24.9983C0.00314704 25.1713 0.0511814 25.3409 0.141898 25.4882C0.232615 25.6356 0.362452 25.7548 0.516943 25.8327L24.1663 37.6573C24.4254 37.7866 24.7111 37.854 25.0007 37.854C25.2903 37.854 25.5759 37.7866 25.835 37.6573L49.4844 25.8327C50.1719 25.4889 50.1719 24.5077 49.4844 24.164Z" fill="black"/>
</svg>
