<svg width="50" height="50" viewBox="0 0 50 50" fill="none" xmlns="http://www.w3.org/2000/svg">
<path d="M26.8057 19.5173C27.1494 18.486 28.6057 18.486 28.9494 19.5173L30.9651 25.5704C31.4087 26.9011 32.1562 28.1101 33.1483 29.1016C34.1404 30.0932 35.3498 30.84 36.6807 31.283L42.7307 33.2986C43.762 33.6423 43.762 35.0986 42.7307 35.4423L36.6776 37.458C35.347 37.9016 34.1379 38.6491 33.1464 39.6412C32.1548 40.6333 31.408 41.8428 30.9651 43.1736L28.9494 49.2237C28.8753 49.4495 28.7318 49.6461 28.5393 49.7855C28.3468 49.9249 28.1152 50 27.8776 50C27.6399 50 27.4083 49.9249 27.2158 49.7855C27.0233 49.6461 26.8798 49.4495 26.8057 49.2237L24.79 43.1705C24.3467 41.8402 23.5997 40.6314 22.6081 39.6399C21.6166 38.6484 20.4078 37.9013 19.0775 37.458L13.0244 35.4423C12.7985 35.3682 12.6019 35.2247 12.4625 35.0322C12.3231 34.8397 12.248 34.6081 12.248 34.3705C12.248 34.1328 12.3231 33.9012 12.4625 33.7087C12.6019 33.5162 12.7985 33.3727 13.0244 33.2986L19.0775 31.283C20.4078 30.8396 21.6166 30.0926 22.6081 29.101C23.5997 28.1095 24.3467 26.9007 24.79 25.5704L26.8057 19.5173V19.5173ZM14.7337 3.58284C14.7786 3.44751 14.8649 3.32974 14.9804 3.24627C15.096 3.1628 15.2349 3.11787 15.3775 3.11787C15.5201 3.11787 15.659 3.1628 15.7746 3.24627C15.8901 3.32974 15.9764 3.44751 16.0213 3.58284L17.2306 7.2141C17.7713 8.83286 19.04 10.1016 20.6588 10.6422L24.29 11.8516C24.4254 11.8964 24.5431 11.9828 24.6266 12.0983C24.7101 12.2139 24.755 12.3528 24.755 12.4954C24.755 12.6379 24.7101 12.7769 24.6266 12.8924C24.5431 13.008 24.4254 13.0943 24.29 13.1391L20.6588 14.3485C19.8604 14.6145 19.135 15.0628 18.5399 15.6578C17.9449 16.2528 17.4966 16.9783 17.2306 17.7766L16.0213 21.4079C15.9764 21.5432 15.8901 21.661 15.7746 21.7445C15.659 21.8279 15.5201 21.8729 15.3775 21.8729C15.2349 21.8729 15.096 21.8279 14.9804 21.7445C14.8649 21.661 14.7786 21.5432 14.7337 21.4079L13.5244 17.7766C13.2584 16.9783 12.8101 16.2528 12.2151 15.6578C11.62 15.0628 10.8946 14.6145 10.0962 14.3485L6.46496 13.1391C6.32963 13.0943 6.21186 13.008 6.1284 12.8924C6.04493 12.7769 6 12.6379 6 12.4954C6 12.3528 6.04493 12.2139 6.1284 12.0983C6.21186 11.9828 6.32963 11.8964 6.46496 11.8516L10.0962 10.6422C10.8946 10.3763 11.62 9.92798 12.2151 9.33294C12.8101 8.73791 13.2584 8.01246 13.5244 7.2141L14.7337 3.58284V3.58284ZM36.8245 0.304697C36.8553 0.215716 36.9131 0.138559 36.9898 0.0839511C37.0666 0.0293436 37.1584 0 37.2526 0C37.3468 0 37.4386 0.0293436 37.5153 0.0839511C37.5921 0.138559 37.6499 0.215716 37.6807 0.304697L38.487 2.72346C38.8463 3.80471 39.6932 4.65159 40.7745 5.01097L43.1932 5.81722C43.2822 5.84807 43.3594 5.90588 43.414 5.98261C43.4686 6.05933 43.4979 6.15117 43.4979 6.24535C43.4979 6.33952 43.4686 6.43136 43.414 6.50809C43.3594 6.58482 43.2822 6.64263 43.1932 6.67347L40.7745 7.47973C40.2416 7.65699 39.7574 7.95603 39.3604 8.35311C38.9633 8.7502 38.6642 9.23439 38.487 9.76724L37.6807 12.186C37.6499 12.275 37.5921 12.3521 37.5153 12.4067C37.4386 12.4614 37.3468 12.4907 37.2526 12.4907C37.1584 12.4907 37.0666 12.4614 36.9898 12.4067C36.9131 12.3521 36.8553 12.275 36.8245 12.186L36.0182 9.76724C35.8409 9.23439 35.5419 8.7502 35.1448 8.35311C34.7477 7.95603 34.2636 7.65699 33.7307 7.47973L31.3151 6.67347C31.2261 6.64263 31.1489 6.58482 31.0943 6.50809C31.0397 6.43136 31.0104 6.33952 31.0104 6.24535C31.0104 6.15117 31.0397 6.05933 31.0943 5.98261C31.1489 5.90588 31.2261 5.84807 31.3151 5.81722L33.7338 5.01097C34.8151 4.65159 35.662 3.80471 36.0213 2.72346L36.8245 0.307822V0.304697Z" fill="black"/>
</svg>
