<svg width="50" height="50" viewBox="0 0 50 50" fill="none" xmlns="http://www.w3.org/2000/svg">
<path d="M26.8057 19.5163C27.1494 18.485 28.6057 18.485 28.9494 19.5163L30.9651 25.5694C31.4087 26.9001 32.1562 28.1091 33.1483 29.1006C34.1404 30.0922 35.3498 30.839 36.6807 31.2819L42.7307 33.2976C43.762 33.6413 43.762 35.0976 42.7307 35.4413L36.6776 37.457C35.347 37.9006 34.1379 38.6481 33.1464 39.6402C32.1548 40.6323 31.408 41.8417 30.9651 43.1726L28.9494 49.2226C28.8753 49.4485 28.7318 49.6451 28.5393 49.7845C28.3468 49.9239 28.1152 49.999 27.8776 49.999C27.6399 49.999 27.4083 49.9239 27.2158 49.7845C27.0233 49.6451 26.8798 49.4485 26.8057 49.2226L24.79 43.1695C24.3467 41.8392 23.5997 40.6304 22.6081 39.6389C21.6166 38.6473 20.4078 37.9003 19.0775 37.457L13.0244 35.4413C12.7985 35.3672 12.6019 35.2237 12.4625 35.0312C12.3231 34.8387 12.248 34.6071 12.248 34.3695C12.248 34.1318 12.3231 33.9002 12.4625 33.7077C12.6019 33.5152 12.7985 33.3717 13.0244 33.2976L19.0775 31.2819C20.4078 30.8386 21.6166 30.0916 22.6081 29.1C23.5997 28.1085 24.3467 26.8997 24.79 25.5694L26.8057 19.5163ZM14.7337 3.58183C14.7786 3.4465 14.8649 3.32873 14.9804 3.24526C15.096 3.16179 15.2349 3.11687 15.3775 3.11687C15.5201 3.11687 15.659 3.16179 15.7746 3.24526C15.8901 3.32873 15.9764 3.4465 16.0213 3.58183L17.2306 7.21309C17.7713 8.83185 19.04 10.1006 20.6588 10.6412L24.29 11.8506C24.4254 11.8954 24.5431 11.9817 24.6266 12.0973C24.7101 12.2129 24.755 12.3518 24.755 12.4944C24.755 12.6369 24.7101 12.7759 24.6266 12.8914C24.5431 13.007 24.4254 13.0933 24.29 13.1381L20.6588 14.3475C19.8604 14.6135 19.135 15.0618 18.5399 15.6568C17.9449 16.2518 17.4966 16.9773 17.2306 17.7756L16.0213 21.4069C15.9764 21.5422 15.8901 21.66 15.7746 21.7435C15.659 21.8269 15.5201 21.8719 15.3775 21.8719C15.2349 21.8719 15.096 21.8269 14.9804 21.7435C14.8649 21.66 14.7786 21.5422 14.7337 21.4069L13.5244 17.7756C13.2584 16.9773 12.8101 16.2518 12.2151 15.6568C11.62 15.0618 10.8946 14.6135 10.0962 14.3475L6.46496 13.1381C6.32963 13.0933 6.21186 13.007 6.1284 12.8914C6.04493 12.7759 6 12.6369 6 12.4944C6 12.3518 6.04493 12.2129 6.1284 12.0973C6.21186 11.9817 6.32963 11.8954 6.46496 11.8506L10.0962 10.6412C10.8946 10.3752 11.62 9.92697 12.2151 9.33193C12.8101 8.7369 13.2584 8.01146 13.5244 7.21309L14.7337 3.58183ZM36.8245 0.30369C36.8553 0.214709 36.9131 0.137552 36.9898 0.082944C37.0666 0.0283365 37.1584 -0.00100708 37.2526 -0.00100708C37.3468 -0.00100708 37.4386 0.0283365 37.5153 0.082944C37.5921 0.137552 37.6499 0.214709 37.6807 0.30369L38.487 2.72245C38.8463 3.8037 39.6932 4.65058 40.7745 5.00996L43.1932 5.81621C43.2822 5.84706 43.3594 5.90487 43.414 5.9816C43.4686 6.05833 43.4979 6.15016 43.4979 6.24434C43.4979 6.33852 43.4686 6.43035 43.414 6.50708C43.3594 6.58381 43.2822 6.64162 43.1932 6.67247L40.7745 7.47872C40.2416 7.65598 39.7574 7.95502 39.3604 8.35211C38.9633 8.74919 38.6642 9.23338 38.487 9.76623L37.6807 12.185C37.6499 12.274 37.5921 12.3511 37.5153 12.4057C37.4386 12.4603 37.3468 12.4897 37.2526 12.4897C37.1584 12.4897 37.0666 12.4603 36.9898 12.4057C36.9131 12.3511 36.8553 12.274 36.8245 12.185L36.0182 9.76623C35.8409 9.23338 35.5419 8.74919 35.1448 8.35211C34.7477 7.95502 34.2636 7.65598 33.7307 7.47872L31.3151 6.67247C31.2261 6.64162 31.1489 6.58381 31.0943 6.50708C31.0397 6.43035 31.0104 6.33852 31.0104 6.24434C31.0104 6.15016 31.0397 6.05833 31.0943 5.9816C31.1489 5.90487 31.2261 5.84706 31.3151 5.81621L33.7338 5.00996C34.8151 4.65058 35.662 3.8037 36.0213 2.72245L36.8245 0.306815V0.30369Z" fill="black"/>
</svg>
