<svg width="50" height="50" viewBox="0 0 50 50" fill="none" xmlns="http://www.w3.org/2000/svg">
<path fill-rule="evenodd" clip-rule="evenodd" d="M18.2143 42.8562C17.7408 42.8562 17.2866 42.6681 16.9517 42.3332C16.6168 41.9984 16.4287 41.5442 16.4287 41.0706V32.5713H8.92931C8.45573 32.5713 8.00155 32.3831 7.66668 32.0483C7.33181 31.7134 7.14368 31.2592 7.14368 30.7856C7.14368 30.312 7.33181 29.8579 7.66668 29.523C8.00155 29.1881 8.45573 29 8.92931 29H16.4287L16.4287 21H8.92931C8.45573 21 8.00155 20.8118 7.66668 20.477C7.33181 20.1421 7.14368 19.6879 7.14368 19.2143C7.14368 18.7408 7.33181 18.2866 7.66668 17.9517C8.00155 17.6168 8.45573 17.4287 8.92931 17.4287H16.4287V8.92919C16.4287 8.45561 16.6168 8.00142 16.9517 7.66655C17.2866 7.33168 17.7408 7.14355 18.2143 7.14355C18.6879 7.14355 19.1421 7.33168 19.477 7.66655C19.8118 8.00142 20 8.45561 20 8.92919V17.4287H30V8.92919C30 8.45561 30.1881 8.00142 30.523 7.66655C30.8579 7.33168 31.3121 7.14355 31.7856 7.14355C32.2592 7.14355 32.7134 7.33168 33.0483 7.66655C33.3831 8.00142 33.5713 8.45561 33.5713 8.92919V17.4287H41.0707C41.5443 17.4287 41.9985 17.6168 42.3334 17.9517C42.6682 18.2866 42.8563 18.7408 42.8563 19.2143C42.8563 19.6879 42.6682 20.1421 42.3334 20.477C41.9985 20.8118 41.5443 21 41.0707 21H33.5713L33.5713 29H41.0707C41.5443 29 41.9985 29.1881 42.3334 29.523C42.6682 29.8579 42.8563 30.312 42.8563 30.7856C42.8563 31.2592 42.6682 31.7134 42.3334 32.0483C41.9985 32.3831 41.5443 32.5713 41.0707 32.5713H33.5713V41.0706C33.5713 41.5442 33.3831 41.9984 33.0483 42.3332C32.7134 42.6681 32.2592 42.8562 31.7856 42.8562C31.3121 42.8562 30.8579 42.6681 30.523 42.3332C30.1881 41.9984 30 41.5442 30 41.0706V32.5713H20V41.0706C20 41.5442 19.8119 41.9984 19.477 42.3332C19.1421 42.6681 18.6879 42.8562 18.2143 42.8562ZM30 29L30 21H20V29H30Z" fill="black"/>
</svg>
