<svg width="50" height="50" viewBox="0 0 50 50" fill="none" xmlns="http://www.w3.org/2000/svg">
<path fill-rule="evenodd" clip-rule="evenodd" d="M6 48.4364V6.24986C6 4.59229 6.65847 3.00262 7.83054 1.83054C9.00262 0.658465 10.5923 0 12.2499 0L37.2493 0C38.9068 0 40.4965 0.658465 41.6686 1.83054C42.8407 3.00262 43.4991 4.59229 43.4991 6.24986V48.4364C43.4993 48.7077 43.4289 48.9744 43.2947 49.2102C43.1605 49.4461 42.9672 49.6429 42.7339 49.7813C42.5005 49.9198 42.2351 49.995 41.9638 49.9998C41.6926 50.0045 41.4247 49.9385 41.1867 49.8082L24.7496 40.8397L8.31245 49.8082C8.07442 49.9385 7.80658 50.0045 7.53529 49.9998C7.26401 49.995 6.99862 49.9198 6.76527 49.7813C6.53191 49.6429 6.33863 49.4461 6.20445 49.2102C6.07026 48.9744 5.9998 48.7077 6 48.4364ZM25.2496 12.8122C25.2039 12.7185 25.1328 12.6395 25.0444 12.5843C24.956 12.529 24.8538 12.4997 24.7496 12.4997C24.6453 12.4997 24.5432 12.529 24.4548 12.5843C24.3664 12.6395 24.2953 12.7185 24.2496 12.8122L22.2684 16.8277C22.2287 16.909 22.1699 16.9793 22.0969 17.0327C22.0239 17.086 21.9391 17.1208 21.8496 17.134L17.4122 17.7777C17.3101 17.7932 17.2143 17.8369 17.1355 17.9038C17.0568 17.9707 16.9982 18.0582 16.9664 18.1565C16.9346 18.2548 16.9309 18.36 16.9555 18.4604C16.9802 18.5607 17.0323 18.6522 17.106 18.7246L20.3122 21.8526C20.4434 21.9807 20.5028 22.1651 20.4715 22.3464L19.7184 26.765C19.7015 26.867 19.7133 26.9718 19.7525 27.0675C19.7918 27.1632 19.8569 27.246 19.9407 27.3067C20.0244 27.3674 20.1235 27.4036 20.2266 27.4111C20.3298 27.4186 20.433 27.3973 20.5247 27.3494L24.4933 25.2619C24.5729 25.2203 24.6613 25.1986 24.7511 25.1986C24.8409 25.1986 24.9294 25.2203 25.0089 25.2619L28.9776 27.3494C29.0692 27.3964 29.172 27.4171 29.2747 27.4092C29.3773 27.4012 29.4757 27.3649 29.559 27.3044C29.6422 27.2438 29.707 27.1613 29.7462 27.0661C29.7853 26.9708 29.7973 26.8666 29.7807 26.765L29.0245 22.3432C29.0085 22.2544 29.0144 22.1631 29.0416 22.0771C29.0689 21.9911 29.1166 21.913 29.1807 21.8495L32.3931 18.7214C32.4669 18.6491 32.519 18.5576 32.5436 18.4572C32.5683 18.3569 32.5645 18.2517 32.5327 18.1534C32.5009 18.0551 32.4424 17.9675 32.3636 17.9006C32.2849 17.8337 32.1891 17.7901 32.0869 17.7746L27.6495 17.1309C27.5601 17.1177 27.4752 17.0829 27.4022 17.0295C27.3293 16.9762 27.2704 16.9058 27.2308 16.8246L25.2496 12.8122Z" fill="black"/>
</svg>
