<svg width="50" height="50" viewBox="0 0 50 50" fill="none" xmlns="http://www.w3.org/2000/svg">
<path fill-rule="evenodd" clip-rule="evenodd" d="M6 48.4354V6.24885C6 4.59128 6.65847 3.00161 7.83054 1.82953C9.00262 0.657458 10.5923 -0.00100708 12.2499 -0.00100708L37.2493 -0.00100708C38.9068 -0.00100708 40.4965 0.657458 41.6686 1.82953C42.8407 3.00161 43.4991 4.59128 43.4991 6.24885V48.4354C43.4993 48.7067 43.4289 48.9734 43.2947 49.2092C43.1605 49.4451 42.9672 49.6419 42.7339 49.7803C42.5005 49.9188 42.2351 49.994 41.9638 49.9988C41.6926 50.0035 41.4247 49.9375 41.1867 49.8072L24.7496 40.8387L8.31245 49.8072C8.07442 49.9375 7.80658 50.0035 7.53529 49.9988C7.26401 49.994 6.99862 49.9188 6.76527 49.7803C6.53191 49.6419 6.33863 49.4451 6.20445 49.2092C6.07026 48.9734 5.9998 48.7067 6 48.4354ZM25.2496 12.8112C25.2039 12.7175 25.1328 12.6385 25.0444 12.5833C24.956 12.528 24.8538 12.4987 24.7496 12.4987C24.6453 12.4987 24.5432 12.528 24.4548 12.5833C24.3664 12.6385 24.2953 12.7175 24.2496 12.8112L22.2684 16.8267C22.2287 16.908 22.1699 16.9783 22.0969 17.0317C22.0239 17.085 21.9391 17.1198 21.8496 17.133L17.4122 17.7767C17.3101 17.7922 17.2143 17.8359 17.1355 17.9028C17.0568 17.9697 16.9982 18.0572 16.9664 18.1555C16.9346 18.2538 16.9309 18.359 16.9555 18.4593C16.9802 18.5597 17.0323 18.6512 17.106 18.7236L20.3122 21.8516C20.4434 21.9797 20.5028 22.1641 20.4715 22.3454L19.7184 26.764C19.7015 26.866 19.7133 26.9708 19.7525 27.0665C19.7918 27.1622 19.8569 27.245 19.9407 27.3057C20.0244 27.3664 20.1235 27.4026 20.2266 27.4101C20.3298 27.4176 20.433 27.3963 20.5247 27.3484L24.4933 25.2609C24.5729 25.2193 24.6613 25.1976 24.7511 25.1976C24.8409 25.1976 24.9294 25.2193 25.0089 25.2609L28.9776 27.3484C29.0692 27.3954 29.172 27.4161 29.2747 27.4082C29.3773 27.4002 29.4757 27.3639 29.559 27.3033C29.6422 27.2428 29.707 27.1603 29.7462 27.0651C29.7853 26.9698 29.7973 26.8656 29.7807 26.764L29.0245 22.3422C29.0085 22.2534 29.0144 22.1621 29.0416 22.0761C29.0689 21.9901 29.1166 21.9119 29.1807 21.8485L32.3931 18.7204C32.4669 18.6481 32.519 18.5566 32.5436 18.4562C32.5683 18.3559 32.5645 18.2507 32.5327 18.1524C32.5009 18.054 32.4424 17.9665 32.3636 17.8996C32.2849 17.8327 32.1891 17.7891 32.0869 17.7736L27.6495 17.1299C27.5601 17.1167 27.4752 17.0819 27.4022 17.0285C27.3293 16.9752 27.2704 16.9048 27.2308 16.8236L25.2496 12.8112Z" fill="black"/>
</svg>
