<svg width="50" height="50" viewBox="0 0 50 50" fill="none" xmlns="http://www.w3.org/2000/svg">
<path d="M7.14645 13.6069C7.14645 13.1333 7.33458 12.6792 7.66945 12.3443C8.00433 12.0094 8.45851 11.8213 8.93209 11.8213H41.0735C41.5471 11.8213 42.0013 12.0094 42.3361 12.3443C42.671 12.6792 42.8591 13.1333 42.8591 13.6069C42.8591 14.0805 42.671 14.5347 42.3361 14.8696C42.0013 15.2044 41.5471 15.3926 41.0735 15.3926H8.93209C8.45851 15.3926 8.00433 15.2044 7.66945 14.8696C7.33458 14.5347 7.14645 14.0805 7.14645 13.6069Z" fill="black"/>
<path d="M7.6639 36.9162C7.32903 37.2511 7.1409 37.7053 7.1409 38.1789C7.1409 38.6524 7.32903 39.1066 7.6639 39.4415C7.99877 39.7764 8.45295 39.9645 8.92653 39.9645H31.0679C31.5415 39.9645 31.9957 39.7764 32.3306 39.4415C32.6654 39.1066 32.8536 38.6524 32.8536 38.1789C32.8536 37.7053 32.6654 37.2511 32.3306 36.9162C31.9957 36.5814 31.5415 36.3932 31.0679 36.3932H8.92653C8.45295 36.3932 7.99877 36.5814 7.6639 36.9162Z" fill="black"/>
<path d="M7.6639 24.6312C7.32903 24.966 7.1409 25.4202 7.1409 25.8938C7.1409 26.3674 7.32903 26.8216 7.6639 27.1564C7.99877 27.4913 8.45295 27.6794 8.92653 27.6794H41.0679C41.5415 27.6794 41.9957 27.4913 42.3306 27.1564C42.6654 26.8216 42.8536 26.3674 42.8536 25.8938C42.8536 25.4202 42.6654 24.966 42.3306 24.6312C41.9957 24.2963 41.5415 24.1082 41.0679 24.1082H8.92653C8.45295 24.1082 7.99877 24.2963 7.6639 24.6312Z" fill="black"/>
</svg>
