<svg xmlns="http://www.w3.org/2000/svg" viewBox="0 0 50 50"><path d="M46.86,6.37a1.54,1.54,0,0,1-.36,1.14,1.52,1.52,0,0,1-1.06.55L5,11.6a1.57,1.57,0,0,1-1.14-.35,1.54,1.54,0,0,1-.55-1.07L3,7.07a1.54,1.54,0,0,1,.36-1.14,1.5,1.5,0,0,1,1.06-.55l11.36-1a.48.48,0,0,0,.42-.31l.65-1.61a2.22,2.22,0,0,1,.77-1A2.36,2.36,0,0,1,18.82,1L29.94,0A2.27,2.27,0,0,1,31.2.25a2.41,2.41,0,0,1,.95.87l.91,1.48a.49.49,0,0,0,.47.23l11.37-1A1.54,1.54,0,0,1,46,2.2a1.6,1.6,0,0,1,.55,1.06Z"/><path d="M43.22,12.5H6.78a.5.5,0,0,0-.5.53l2,32.57A4.69,4.69,0,0,0,13,50H37a4.69,4.69,0,0,0,4.68-4.4l2-32.57A.5.5,0,0,0,43.22,12.5ZM17,42.5a1.5,1.5,0,0,1-3,0v-22a1.5,1.5,0,0,1,3,0Zm9,0a1.5,1.5,0,0,1-3,0v-22a1.5,1.5,0,0,1,3,0Zm9,0a1.5,1.5,0,0,1-3,0v-22a1.5,1.5,0,0,1,3,0Z"/></svg>