<svg width="50" height="50" viewBox="0 0 50 50" fill="none" xmlns="http://www.w3.org/2000/svg">
<path d="M44.8967 1.8388L33.5297 2.83328C33.3414 2.84976 33.1599 2.75866 33.0606 2.59783L32.1489 1.12094C31.9212 0.748953 31.5942 0.447901 31.2046 0.251645C30.8151 0.0553893 30.3786 -0.0282823 29.9441 0.0100435L18.8245 0.982885C18.3908 1.01915 17.9761 1.17684 17.6279 1.43789C17.2798 1.69894 17.0122 2.0528 16.8558 2.45891L16.2144 4.07168C16.1446 4.24731 15.9817 4.36854 15.7934 4.38501L4.42632 5.3795C4.0135 5.41561 3.63193 5.61425 3.36556 5.93169C3.09919 6.24914 2.96983 6.65941 3.00595 7.07223L3.27831 10.1853C3.31443 10.5982 3.51306 10.9797 3.83051 11.2461C4.14796 11.5125 4.55822 11.6418 4.97105 11.6057L45.4414 8.06501C45.8543 8.02889 46.2358 7.83026 46.5022 7.51281C46.7686 7.19536 46.8979 6.7851 46.8618 6.37228L46.5895 3.25917C46.5533 2.84634 46.3547 2.46478 46.0373 2.19841C45.7198 1.93203 45.3095 1.80268 44.8967 1.8388Z" fill="black"/>
<path fill-rule="evenodd" clip-rule="evenodd" d="M8.32031 45.6054C8.39483 46.7955 8.92008 47.9124 9.78911 48.7288C10.6582 49.5453 11.8057 49.9998 12.998 50H37.0019C38.1943 49.9998 39.3418 49.5453 40.2109 48.7288C41.0799 47.9124 41.6051 46.7955 41.6797 45.6054L43.7168 13.0312C43.7348 12.7433 43.5062 12.5 43.2177 12.5H6.78224C6.49383 12.5 6.26522 12.7433 6.28322 13.0312L8.32031 45.6054ZM26 20.501C26 19.6726 25.3284 19.001 24.5 19.001C23.6716 19.001 23 19.6726 23 20.501L23 42.501C23 43.3294 23.6716 44.001 24.5 44.001C25.3284 44.001 26 43.3294 26 42.501L26 20.501ZM15.5 19.001C16.3284 19.001 17 19.6726 17 20.501L17 42.501C17 43.3294 16.3284 44.001 15.5 44.001C14.6716 44.001 14 43.3294 14 42.501L14 20.501C14 19.6726 14.6716 19.001 15.5 19.001ZM35 20.501C35 19.6726 34.3284 19.001 33.5 19.001C32.6716 19.001 32 19.6726 32 20.501V42.501C32 43.3294 32.6716 44.001 33.5 44.001C34.3284 44.001 35 43.3294 35 42.501V20.501Z" fill="black"/>
</svg>
