<svg xmlns="http://www.w3.org/2000/svg" viewBox="0 0 50 50"><defs><style>.a{fill-rule:evenodd;}</style></defs><path class="a" d="M43.22,12.5H6.78a.5.5,0,0,0-.5.53l2,32.57A4.69,4.69,0,0,0,13,50H37a4.69,4.69,0,0,0,4.68-4.4l2-32.57A.5.5,0,0,0,43.22,12.5ZM17,42.5a1.5,1.5,0,0,1-3,0v-22a1.5,1.5,0,0,1,3,0Zm9,0a1.5,1.5,0,0,1-3,0v-22a1.5,1.5,0,0,1,3,0Zm9,0a1.5,1.5,0,0,1-3,0v-22a1.5,1.5,0,0,1,3,0Z"/><path class="a" d="M46.88,4.69V7.81a1.55,1.55,0,0,1-1.57,1.56H4.69A1.55,1.55,0,0,1,3.12,7.81V4.69a1.57,1.57,0,0,1,.46-1.11,1.59,1.59,0,0,1,1.11-.46H16.1a.48.48,0,0,0,.44-.27l.78-1.55a2.39,2.39,0,0,1,.86-.95A2.34,2.34,0,0,1,19.41,0H30.58a2.34,2.34,0,0,1,1.23.35,2.41,2.41,0,0,1,.87,1l.78,1.55a.48.48,0,0,0,.44.27H45.31a1.59,1.59,0,0,1,1.11.46A1.57,1.57,0,0,1,46.88,4.69Z"/></svg>