<svg width="50" height="50" viewBox="0 0 50 50" fill="none" xmlns="http://www.w3.org/2000/svg">
<path d="M45.3125 3.12502H33.902C33.713 3.12502 33.5402 3.01845 33.4553 2.84958L32.6758 1.29884C32.4813 0.908429 32.1818 0.58002 31.8108 0.350562C31.4399 0.121105 31.0123 -0.0002957 30.5762 1.71218e-05H19.4141C18.9789 -0.00165578 18.552 0.119292 18.1824 0.349005C17.8128 0.578717 17.5154 0.907902 17.3242 1.29884L16.5447 2.84958C16.4598 3.01844 16.287 3.12502 16.098 3.12502H4.6875C4.2731 3.12502 3.87567 3.28964 3.58265 3.58266C3.28962 3.87569 3.125 4.27311 3.125 4.68752V7.81251C3.125 8.22692 3.28962 8.62434 3.58265 8.91737C3.87567 9.21039 4.2731 9.37501 4.6875 9.37501H45.3125C45.7269 9.37501 46.1243 9.21039 46.4173 8.91737C46.7104 8.62434 46.875 8.22692 46.875 7.81251V4.68752C46.875 4.27311 46.7104 3.87569 46.4173 3.58266C46.1243 3.28964 45.7269 3.12502 45.3125 3.12502Z" fill="black"/>
<path fill-rule="evenodd" clip-rule="evenodd" d="M8.32031 45.6055C8.39483 46.7955 8.92008 47.9124 9.78911 48.7289C10.6582 49.5453 11.8057 49.9998 12.998 50H37.0019C38.1943 49.9998 39.3418 49.5453 40.2109 48.7289C41.0799 47.9124 41.6051 46.7955 41.6797 45.6055L43.7168 13.0312C43.7348 12.7434 43.5062 12.5 43.2177 12.5H6.78224C6.49383 12.5 6.26522 12.7434 6.28322 13.0312L8.32031 45.6055ZM26 20.501C26 19.6726 25.3284 19.001 24.5 19.001C23.6716 19.001 23 19.6726 23 20.501L23 42.501C23 43.3294 23.6716 44.001 24.5 44.001C25.3284 44.001 26 43.3294 26 42.501L26 20.501ZM15.5 19.001C16.3284 19.001 17 19.6726 17 20.501L17 42.501C17 43.3294 16.3284 44.001 15.5 44.001C14.6716 44.001 14 43.3294 14 42.501L14 20.501C14 19.6726 14.6716 19.001 15.5 19.001ZM35 20.501C35 19.6726 34.3284 19.001 33.5 19.001C32.6716 19.001 32 19.6726 32 20.501L32 42.501C32 43.3294 32.6716 44.001 33.5 44.001C34.3284 44.001 35 43.3294 35 42.501L35 20.501Z" fill="black"/>
</svg>
