<svg width="50" height="50" viewBox="0 0 50 50" fill="none" xmlns="http://www.w3.org/2000/svg">
<path d="M41.0285 0H31.5772L31.5434 32.6897C31.5208 34.2931 31.3514 35.7046 31.0352 36.9241C30.7191 38.1436 30.2448 39.1599 29.6125 39.9729C29.0253 40.7633 28.28 41.3618 27.3767 41.7683C26.4959 42.1522 25.4797 42.3442 24.3279 42.3442C23.2665 42.3442 22.3293 42.1635 21.5163 41.8022C20.7033 41.4182 20.0145 40.8537 19.4499 40.1084C18.8401 39.2954 18.3771 38.2678 18.061 37.0257C17.7674 35.7837 17.6093 34.3383 17.5867 32.6897L17.5528 0H8.03388L8 32.6897C8 35.4449 8.38392 37.9065 9.15176 40.0745C9.94219 42.22 11.0488 44.0266 12.4715 45.4946C13.8943 46.9625 15.5994 48.0804 17.5867 48.8482C19.5967 49.6161 21.8437 50 24.3279 50C26.9702 50 29.3189 49.6161 31.374 48.8482C33.4517 48.0804 35.2132 46.9512 36.6585 45.4607C38.0813 43.9928 39.1653 42.1861 39.9106 40.0407C40.6784 37.8952 41.0623 35.4449 41.0623 32.6897L41.0285 0Z" fill="white"/>
</svg>
