<svg width="50" height="50" viewBox="0 0 50 50" fill="none" xmlns="http://www.w3.org/2000/svg">
<path d="M41.0285 0.000976562H31.5772L31.5434 32.6907C31.5208 34.2941 31.3514 35.7056 31.0352 36.9251C30.7191 38.1446 30.2448 39.1609 29.6125 39.9739C29.0253 40.7643 28.28 41.3628 27.3767 41.7693C26.4959 42.1532 25.4797 42.3451 24.3279 42.3451C23.2665 42.3451 22.3293 42.1645 21.5163 41.8031C20.7033 41.4192 20.0145 40.8546 19.4499 40.1094C18.8401 39.2964 18.3771 38.2688 18.061 37.0267C17.7674 35.7846 17.6093 34.3393 17.5867 32.6907L17.5528 0.000976562H8.03388L8 32.6907C8 35.4459 8.38392 37.9075 9.15176 40.0755C9.94219 42.2209 11.0488 44.0276 12.4715 45.4956C13.8943 46.9635 15.5994 48.0814 17.5867 48.8492C19.5967 49.6171 21.8437 50.001 24.3279 50.001C26.9702 50.001 29.3189 49.6171 31.374 48.8492C33.4517 48.0814 35.2132 46.9522 36.6585 45.4617C38.0813 43.9937 39.1653 42.1871 39.9106 40.0416C40.6784 37.8962 41.0623 35.4459 41.0623 32.6907L41.0285 0.000976562Z" fill="black"/>
</svg>
